<svg width="95" height="34" viewBox="0 0 95 34" fill="none" xmlns="http://www.w3.org/2000/svg">
<path fill-rule="evenodd" clip-rule="evenodd" d="M15.5064 31.3471H14.6885V26.0464L13.0852 29.6535H12.5888L10.9982 26.0464V31.3471H10.2339V25.1961H11.3493L12.8863 28.6213L14.3698 25.1961H15.5064L15.5064 31.3471ZM20.2867 31.3471H19.5097V30.8352C19.27 31.0439 19.043 31.2032 18.8272 31.3118C18.6129 31.4204 18.3732 31.4754 18.1095 31.4754C17.9078 31.4754 17.7189 31.4429 17.5412 31.3767C17.3635 31.3104 17.2084 31.2061 17.0758 31.0622C16.9433 30.9184 16.8404 30.7393 16.7684 30.5207C16.6951 30.3036 16.6585 30.0399 16.6585 29.7282V26.7331H17.4354V29.3602C17.4354 29.6056 17.4439 29.8086 17.4622 29.9708C17.4806 30.1315 17.5215 30.2726 17.5835 30.3939C17.647 30.5123 17.733 30.5983 17.843 30.6533C17.9515 30.7083 18.1081 30.7365 18.3112 30.7365C18.5015 30.7365 18.7046 30.6829 18.9189 30.5757C19.1333 30.4672 19.3307 30.336 19.5098 30.1781V26.7331H20.2868L20.2867 31.3471ZM22.2031 31.3471H21.4261V26.7331H22.2031V31.3471ZM22.2567 25.9589H21.3725V25.1538H22.2567V25.9589ZM24.7569 31.4374C24.3325 31.4374 24.0025 31.3175 23.7656 31.0763C23.5287 30.8352 23.4102 30.4545 23.4102 29.9341V27.3775H22.8857V26.7331H23.4102V25.4076H24.1872V26.7331H25.6157V27.3775H24.1872V29.5703C24.1872 29.8044 24.1914 29.9849 24.1999 30.1118C24.2083 30.2387 24.2394 30.3571 24.2944 30.4671C24.3409 30.563 24.4171 30.6364 24.5214 30.6843C24.6258 30.7322 24.7682 30.7562 24.9473 30.7562C25.0728 30.7562 25.1954 30.7379 25.3139 30.7012C25.4324 30.6631 25.5183 30.6321 25.5706 30.6081H25.6157V31.3048C25.47 31.3471 25.3216 31.3796 25.1715 31.4021C25.022 31.426 24.8838 31.4374 24.7569 31.4374ZM29.9871 29.0415C29.9871 29.8185 29.7996 30.4192 29.4259 30.8408C29.0507 31.2639 28.5516 31.4754 27.9297 31.4754C27.2881 31.4754 26.7833 31.2568 26.4152 30.8211C26.0472 30.3839 25.8639 29.7917 25.8639 29.0415C25.8639 28.2716 26.0528 27.6723 26.4321 27.245C26.81 26.8177 27.3093 26.6048 27.9297 26.6048C28.5516 26.6048 29.0507 26.8177 29.4259 27.2436C29.7996 27.668 29.9871 28.2688 29.9871 29.0415ZM29.1862 29.0415C29.1862 28.445 29.0776 28.0008 28.859 27.7103C28.6419 27.4198 28.3316 27.2746 27.9298 27.2746C27.525 27.2746 27.212 27.4198 26.9934 27.7103C26.7748 28.0008 26.6648 28.445 26.6648 29.0415C26.6648 29.6197 26.7748 30.0582 26.9934 30.3571C27.212 30.6561 27.525 30.8056 27.9298 30.8056C28.3288 30.8056 28.639 30.659 28.8576 30.3656C29.0761 30.0723 29.1862 29.6309 29.1862 29.0415ZM38.6665 31.3471V28.6777C38.6665 28.4662 38.658 28.2702 38.6411 28.0897C38.6256 27.9092 38.5903 27.7681 38.5382 27.6667C38.4832 27.5553 38.4056 27.4749 38.3027 27.4227C38.2012 27.3705 38.063 27.3437 37.8895 27.3437C37.7302 27.3437 37.5596 27.3931 37.3762 27.4904C37.1929 27.5891 37.004 27.7301 36.808 27.9149C36.8108 27.9614 36.815 28.0164 36.8193 28.0813C36.8235 28.1461 36.8249 28.2222 36.8249 28.3111V31.3471H36.0479V28.6777C36.0479 28.4662 36.0394 28.2702 36.0225 28.0897C36.007 27.9092 35.9718 27.7682 35.9196 27.6667C35.8646 27.5553 35.7871 27.4749 35.6841 27.4227C35.5825 27.3705 35.4443 27.3438 35.2709 27.3438C35.1031 27.3438 34.9269 27.3959 34.7435 27.5003C34.5588 27.606 34.3797 27.74 34.2062 27.9022V31.3471H33.4293V26.7332H34.2062V27.2451C34.4107 27.042 34.6124 26.884 34.8112 26.7727C35.0114 26.6613 35.23 26.6048 35.4697 26.6048C35.7434 26.6048 35.9844 26.6669 36.1946 26.791C36.4061 26.9151 36.5654 27.1181 36.6768 27.4016C36.9109 27.1407 37.1393 26.9419 37.3622 26.8079C37.585 26.6725 37.8275 26.6048 38.0884 26.6048C38.2872 26.6048 38.4677 26.6359 38.6299 26.6979C38.792 26.76 38.9345 26.8601 39.0557 26.9968C39.1798 27.1379 39.2743 27.3128 39.342 27.5215C39.4096 27.7316 39.4435 27.9938 39.4435 28.3111V31.3471H38.6665V31.3471ZM43.1112 30.2105V28.9287C42.9265 28.9456 42.6938 28.9682 42.4118 28.9964C42.1284 29.026 41.9013 29.0669 41.7279 29.119C41.5206 29.1825 41.35 29.2798 41.216 29.411C41.0806 29.5407 41.0129 29.724 41.0129 29.9581C41.0129 30.2232 41.0877 30.4234 41.2358 30.5574C41.3852 30.6928 41.6024 30.7604 41.8886 30.7604C42.134 30.7604 42.3554 30.7069 42.5542 30.6011C42.7517 30.4954 42.9378 30.3656 43.1112 30.2105ZM43.1112 30.8563C43.0478 30.9029 42.9632 30.9677 42.8574 31.0523C42.7517 31.1355 42.6487 31.2032 42.55 31.2526C42.4118 31.3245 42.2793 31.3795 42.151 31.4176C42.0226 31.4557 41.8435 31.4754 41.6123 31.4754C41.4219 31.4754 41.2414 31.4401 41.0708 31.3682C40.9002 31.2963 40.7507 31.1962 40.621 31.0665C40.4969 30.9395 40.3981 30.783 40.3235 30.5969C40.2487 30.4108 40.212 30.2147 40.212 30.0088C40.212 29.6888 40.2797 29.4166 40.4151 29.1924C40.5491 28.9667 40.7634 28.7891 41.0539 28.6565C41.3134 28.5381 41.6194 28.4563 41.9719 28.4112C42.3244 28.366 42.7037 28.3322 43.1112 28.3096V28.1616C43.1112 27.9797 43.083 27.833 43.028 27.7202C42.9731 27.6088 42.8969 27.5228 42.7968 27.4622C42.6981 27.3987 42.5768 27.3578 42.4344 27.3366C42.2905 27.3155 42.1439 27.3056 41.993 27.3056C41.8139 27.3056 41.6024 27.3324 41.3612 27.386C41.1187 27.4396 40.8761 27.5186 40.6336 27.6201H40.5885V26.8304C40.7323 26.7895 40.9368 26.7444 41.2033 26.695C41.4712 26.6457 41.7349 26.6203 41.9972 26.6203C42.3131 26.6203 42.581 26.6457 42.7982 26.695C43.0153 26.7444 43.2113 26.8332 43.3847 26.9629C43.5526 27.0899 43.6781 27.2535 43.7599 27.4551C43.8431 27.6553 43.884 27.9007 43.884 28.1898V31.3471H43.1112V30.8563H43.1112ZM45.7679 31.3471H44.9909V26.7331H45.7679V31.3471ZM45.8215 25.9589H44.9374V25.1538H45.8215V25.9589ZM48.1554 31.4585C47.8465 31.4585 47.5588 31.4176 47.2895 31.3344C47.0216 31.2512 46.7988 31.1637 46.6225 31.0693V30.1978H46.6634C46.7398 30.2577 46.8179 30.3156 46.8975 30.3713C46.9863 30.4347 47.1061 30.501 47.2542 30.5701C47.3868 30.6307 47.5321 30.6843 47.6899 30.7308C47.8507 30.7779 48.0174 30.8016 48.1849 30.8013C48.309 30.8013 48.4401 30.7872 48.5811 30.7576C48.7222 30.7295 48.8265 30.6928 48.8956 30.6476C48.9915 30.5856 49.0606 30.5179 49.1043 30.446C49.1466 30.3741 49.1678 30.2669 49.1678 30.123C49.1678 29.9383 49.1171 29.7987 49.0168 29.7057C48.9168 29.6112 48.7391 29.5336 48.4824 29.4702C48.3837 29.4448 48.254 29.4166 48.0947 29.3842C47.9458 29.354 47.7981 29.3183 47.6519 29.277C47.2993 29.1755 47.0427 29.0175 46.8834 28.8046C46.724 28.5902 46.6436 28.3322 46.6436 28.029C46.6436 27.613 46.8002 27.2746 47.1146 27.0123C47.4291 26.7514 47.8465 26.6203 48.3668 26.6203C48.6235 26.6203 48.8801 26.6513 49.1396 26.7148C49.3991 26.7782 49.6162 26.8586 49.7925 26.9545V27.785H49.7516C49.5528 27.6285 49.3314 27.5044 49.0875 27.4142C48.8449 27.3225 48.5982 27.2774 48.3499 27.2774C48.0947 27.2774 47.8789 27.331 47.7027 27.4382C47.5264 27.5454 47.4376 27.7089 47.4376 27.9261C47.4376 28.1192 47.4898 28.2631 47.5941 28.3576C47.6985 28.452 47.8663 28.531 48.0975 28.5917C48.2131 28.6213 48.3429 28.6509 48.4839 28.6805C48.6263 28.7087 48.7758 28.7425 48.9323 28.7806C49.275 28.8666 49.5317 29.0091 49.7037 29.2065C49.8757 29.4052 49.9617 29.6746 49.9617 30.0159C49.9617 30.2147 49.9222 30.4022 49.8432 30.5799C49.7657 30.7576 49.6501 30.9099 49.4992 31.0368C49.3342 31.175 49.1467 31.2794 48.9394 31.3513C48.7307 31.4232 48.4698 31.4585 48.1554 31.4585ZM57.1985 28.9174C57.1985 29.6859 57.0152 30.298 56.6471 30.7534C56.2791 31.2089 55.8152 31.4374 55.2526 31.4374C55.0241 31.4374 54.8224 31.4105 54.6462 31.3584C54.4699 31.3062 54.2894 31.2258 54.1047 31.1158V33.0491H53.3277V26.7331H54.1047V27.2154C54.2979 27.0419 54.5122 26.8967 54.7477 26.7797C54.9818 26.6626 55.2399 26.6048 55.5176 26.6048C56.0464 26.6048 56.4582 26.8135 56.7543 27.2323C57.0504 27.6511 57.1985 28.2123 57.1985 28.9174ZM56.3976 29.0048C56.3976 28.4789 56.3129 28.0699 56.1451 27.7794C55.9774 27.4889 55.7052 27.3437 55.3272 27.3437C55.1073 27.3437 54.8943 27.3931 54.6899 27.4903C54.484 27.5876 54.2893 27.7145 54.1046 27.8683V30.4827C54.3091 30.5828 54.4826 30.6505 54.6278 30.6857C54.7716 30.7209 54.938 30.7393 55.1256 30.7393C55.5275 30.7393 55.8391 30.5927 56.0633 30.2979C56.2862 30.0032 56.3976 29.5717 56.3976 29.0048ZM61.8012 29.0415C61.8012 29.8185 61.6136 30.4192 61.24 30.8408C60.8648 31.2639 60.3657 31.4754 59.7438 31.4754C59.1022 31.4754 58.5974 31.2568 58.2293 30.8211C57.8613 30.3839 57.678 29.7917 57.678 29.0415C57.678 28.2716 57.8669 27.6723 58.2462 27.245C58.6241 26.8177 59.1234 26.6048 59.7438 26.6048C60.3657 26.6048 60.8648 26.8177 61.24 27.2436C61.6137 27.668 61.8012 28.2688 61.8012 29.0415ZM61.0002 29.0415C61.0002 28.445 60.8917 28.0008 60.673 27.7103C60.4559 27.4198 60.1457 27.2746 59.7438 27.2746C59.3391 27.2746 59.026 27.4198 58.8074 27.7103C58.5889 28.0008 58.4789 28.445 58.4789 29.0415C58.4789 29.6197 58.5889 30.0582 58.8074 30.3571C59.026 30.6561 59.3391 30.8056 59.7438 30.8056C60.1428 30.8056 60.4531 30.659 60.6716 30.3656C60.8902 30.0723 61.0002 29.6309 61.0002 29.0415ZM65.0445 27.5665H65.0036C64.9458 27.5496 64.8837 27.5397 64.8189 27.5355C64.754 27.5313 64.6764 27.5299 64.5862 27.5299C64.3761 27.5299 64.1688 27.575 63.9615 27.6666C63.7556 27.7569 63.5596 27.8923 63.3749 28.0713V31.3471H62.5979V26.7331H63.3749V27.4185C63.6583 27.1689 63.9065 26.9912 64.1166 26.8882C64.3281 26.7853 64.5326 26.7331 64.73 26.7331C64.8103 26.7331 64.8696 26.7345 64.9105 26.7388C64.95 26.743 64.9951 26.75 65.0444 26.7585V27.5665H65.0445ZM71.9175 26.7331L70.1788 31.3471H69.4808L67.7548 26.7331H68.5938L69.8573 30.2881L71.1081 26.7331H71.9175ZM76.2353 29.0415C76.2353 29.8185 76.0478 30.4192 75.6741 30.8408C75.299 31.2639 74.7998 31.4754 74.1779 31.4754C73.5363 31.4754 73.0315 31.2568 72.6634 30.8211C72.2954 30.3839 72.1121 29.7917 72.1121 29.0415C72.1121 28.2716 72.3011 27.6723 72.6804 27.245C73.0582 26.8177 73.5574 26.6048 74.1779 26.6048C74.7998 26.6048 75.2989 26.8177 75.6741 27.2436C76.0478 27.668 76.2353 28.2688 76.2353 29.0415ZM75.4343 29.0415C75.4343 28.445 75.3258 28.0008 75.1072 27.7103C74.8901 27.4198 74.5798 27.2746 74.1779 27.2746C73.7732 27.2746 73.4602 27.4198 73.2416 27.7103C73.023 28.0008 72.913 28.445 72.913 29.0415C72.913 29.6197 73.023 30.0582 73.2416 30.3571C73.4602 30.6561 73.7732 30.8056 74.1779 30.8056C74.577 30.8056 74.8872 30.659 75.1058 30.3656C75.3243 30.0723 75.4343 29.6309 75.4343 29.0415ZM78.8666 31.45C78.5507 31.45 78.2603 31.4007 77.9952 31.3034C77.7314 31.2061 77.5045 31.058 77.314 30.8591C77.1237 30.6604 76.977 30.4108 76.8713 30.109C76.7669 29.8072 76.7148 29.4532 76.7148 29.0457C76.7148 28.641 76.7698 28.2913 76.8784 27.9966C76.9869 27.7019 77.1321 27.4537 77.314 27.252C77.4959 27.0518 77.7216 26.8967 77.9937 26.7881C78.2645 26.6795 78.5564 26.6245 78.8666 26.6245C79.1204 26.6245 79.3644 26.6598 79.5999 26.7317C79.8354 26.8036 80.0455 26.8868 80.2302 26.9799V27.8513H80.1851C80.13 27.8048 80.0582 27.7513 79.9721 27.6906C79.8847 27.63 79.7803 27.5679 79.6563 27.5045C79.5491 27.4495 79.4221 27.4015 79.2755 27.3606C79.1303 27.3198 78.9892 27.2986 78.8539 27.2986C78.452 27.2986 78.1291 27.4509 77.8851 27.7555C77.6412 28.0587 77.5199 28.4888 77.5199 29.0458C77.5199 29.5901 77.6383 30.0159 77.8738 30.3191C78.1094 30.6237 78.4351 30.776 78.8539 30.776C79.1077 30.776 79.3488 30.7239 79.5773 30.6195C79.8057 30.5151 80.0088 30.3798 80.1851 30.2148H80.2302V31.0863C80.1526 31.1229 80.0567 31.1652 79.9411 31.216C79.8255 31.2682 79.7211 31.3048 79.6266 31.3302C79.4955 31.3683 79.377 31.3979 79.2713 31.419C79.167 31.4401 79.0316 31.45 78.8666 31.45ZM82.9405 31.4542C82.2058 31.4542 81.6347 31.2469 81.2286 30.8324C80.8225 30.4178 80.6194 29.8298 80.6194 29.0669C80.6194 28.3153 80.8168 27.716 81.2102 27.2717C81.6037 26.8276 82.1184 26.6048 82.7558 26.6048C83.042 26.6048 83.2945 26.6457 83.5159 26.7289C83.7358 26.8106 83.929 26.9404 84.094 27.1166C84.259 27.2929 84.3859 27.5086 84.4733 27.7639C84.5621 28.0177 84.6058 28.3308 84.6058 28.6988V29.1205H81.4091C81.4091 29.6577 81.5445 30.0681 81.8138 30.3515C82.0831 30.6349 82.4568 30.7774 82.9335 30.7774C83.1041 30.7774 83.2705 30.7576 83.434 30.7196C83.5976 30.6814 83.7457 30.6307 83.8783 30.5701C84.0192 30.5066 84.1377 30.446 84.2336 30.3867C84.3295 30.3275 84.4099 30.2711 84.4733 30.219H84.5185V31.0664C84.4282 31.1017 84.3154 31.1468 84.18 31.2004C84.0446 31.254 83.9234 31.2963 83.8162 31.3259C83.6653 31.3668 83.5285 31.3992 83.4058 31.4218C83.2831 31.4429 83.128 31.4542 82.9405 31.4542ZM83.85 28.5254C83.8444 28.3167 83.8204 28.1362 83.7753 27.9839C83.7316 27.833 83.6681 27.7047 83.5864 27.6003C83.4947 27.4847 83.3791 27.3959 83.2366 27.3352C83.0942 27.2746 82.9193 27.245 82.7107 27.245C82.5034 27.245 82.3285 27.276 82.1833 27.338C82.0394 27.4001 81.9069 27.4903 81.7884 27.6088C81.6728 27.73 81.5854 27.8641 81.5247 28.0107C81.4641 28.1587 81.426 28.3294 81.4091 28.5254L83.85 28.5254ZM84.1546 25.9886H83.4975L82.7332 24.931L81.9731 25.9886H81.3329L82.2749 24.4233H83.2127L84.1546 25.9886ZM48.904 18.8295V5.94824H53.3538C54.2593 5.94824 54.9852 6.0802 55.5318 6.33815C56.0812 6.59909 56.509 7.00095 56.8182 7.54378C57.1273 8.08364 57.2847 8.65049 57.2847 9.24427C57.2847 9.79312 57.1467 10.312 56.8706 10.7978C56.5973 11.2837 56.1805 11.6766 55.6257 11.9765C56.3434 12.2044 56.8927 12.5943 57.2792 13.1432C57.6656 13.695 57.8589 14.3458 57.8589 15.0956C57.8589 15.6984 57.7402 16.2593 57.5055 16.7781C57.2709 17.297 56.9811 17.6958 56.636 17.9778C56.291 18.2597 55.8576 18.4696 55.3386 18.6136C54.8196 18.7575 54.182 18.8295 53.4256 18.8295H48.904ZM50.4747 11.3617H53.0392C53.7321 11.3617 54.2316 11.3107 54.5353 11.2117C54.9328 11.0828 55.2337 10.8698 55.4352 10.5699C55.6367 10.27 55.7389 9.89511 55.7389 9.44527C55.7389 9.01937 55.645 8.64153 55.4573 8.3176C55.2668 7.99068 54.9963 7.76875 54.6485 7.64876C54.2979 7.52879 53.6961 7.46886 52.8432 7.46886H50.4747V11.3617ZM50.4747 17.309H53.4256C53.9335 17.309 54.2896 17.288 54.4939 17.249C54.8555 17.177 55.1564 17.06 55.3993 16.8951C55.6422 16.7331 55.841 16.4932 55.9983 16.1813C56.1529 15.8664 56.233 15.5065 56.233 15.0956C56.233 14.6157 56.1198 14.1988 55.8934 13.842C55.6671 13.4881 55.3524 13.2391 54.9494 13.0952C54.5491 12.9542 53.9694 12.8823 53.2158 12.8823H50.4747V17.309ZM65.4362 17.6778C64.8952 18.1757 64.3762 18.5266 63.8793 18.7336C63.3797 18.9375 62.8442 19.0395 62.2728 19.0395C61.3287 19.0395 60.6055 18.7906 60.0975 18.2897C59.5924 17.7888 59.3384 17.147 59.3384 16.3702C59.3384 15.9114 59.4323 15.4945 59.6255 15.1166C59.816 14.7387 60.0671 14.4358 60.3764 14.2079C60.6883 13.98 61.0361 13.806 61.4253 13.689C61.7096 13.6081 62.1402 13.5271 62.7172 13.4521C63.8931 13.2991 64.7599 13.1192 65.3148 12.9062C65.3203 12.6903 65.3231 12.5523 65.3231 12.4953C65.3231 11.8505 65.185 11.3947 64.909 11.1337C64.5391 10.7739 63.9842 10.5969 63.2527 10.5969C62.5681 10.5969 62.063 10.7259 61.7345 10.9868C61.4087 11.2477 61.1686 11.7096 61.0112 12.3724L59.5896 12.1595C59.7193 11.4996 59.9319 10.9628 60.2273 10.5579C60.5227 10.1501 60.9532 9.83513 61.5136 9.61618C62.074 9.39726 62.7227 9.2863 63.4626 9.2863C64.1968 9.2863 64.7902 9.38225 65.2485 9.5682C65.7067 9.75713 66.0435 9.99111 66.2616 10.276C66.4769 10.5609 66.6259 10.9178 66.7143 11.3527C66.7612 11.6227 66.786 12.1085 66.786 12.8103V14.9187C66.786 16.3912 66.8165 17.3209 66.8799 17.7079C66.9406 18.0978 67.0648 18.4727 67.247 18.8296H65.726C65.577 18.5026 65.4776 18.1188 65.4362 17.6778ZM65.3148 14.1449C64.7848 14.3818 63.9925 14.5798 62.9381 14.7447C62.339 14.8377 61.9139 14.9427 61.6682 15.0596C61.4198 15.1766 61.2266 15.3475 61.0941 15.5755C60.9588 15.8004 60.8898 16.0493 60.8898 16.3253C60.8898 16.7481 61.0389 17.099 61.3314 17.381C61.6241 17.6599 62.0547 17.8009 62.6206 17.8009C63.181 17.8009 63.6805 17.6689 64.1167 17.402C64.5529 17.135 64.8758 16.7692 65.0801 16.3073C65.2375 15.9504 65.3148 15.4225 65.3148 14.7267V14.1449ZM69.0441 18.8295V9.49923H70.3525V10.8248C70.9847 9.79912 71.8956 9.28628 73.0853 9.28628C73.6043 9.28628 74.0791 9.38823 74.5125 9.58915C74.9486 9.7931 75.2716 10.057 75.4869 10.3869C75.705 10.7138 75.854 11.1037 75.9424 11.5536C75.9948 11.8476 76.0224 12.3604 76.0224 13.0922V18.8295H74.5649V13.1522C74.5649 12.5103 74.5097 12.0275 74.3965 11.7066C74.2834 11.3887 74.0819 11.1337 73.7947 10.9448C73.5049 10.7528 73.1681 10.6569 72.7789 10.6569C72.1578 10.6569 71.625 10.8728 71.1724 11.2987C70.7224 11.7276 70.4988 12.5373 70.4988 13.734V18.8295H69.0441ZM83.8593 15.4105L85.2891 15.6145C85.1345 16.6852 84.7343 17.525 84.0884 18.1308C83.4452 18.7366 82.653 19.0395 81.7144 19.0395C80.5412 19.0395 79.5944 18.6226 78.8823 17.7889C78.1673 16.9551 77.8084 15.7584 77.8084 14.1989C77.8084 13.1912 77.963 12.3094 78.2694 11.5536C78.5786 10.7979 79.0451 10.231 79.6745 9.85315C80.3011 9.47524 80.9857 9.28633 81.7227 9.28633C82.6557 9.28633 83.4204 9.54425 84.011 10.0571C84.6046 10.57 84.9855 11.2958 85.1539 12.2405L83.7378 12.4774C83.6025 11.8506 83.3651 11.3797 83.0228 11.0618C82.6806 10.7469 82.2665 10.5879 81.7806 10.5879C81.0464 10.5879 80.4501 10.8728 79.9919 11.4457C79.5337 12.0156 79.3046 12.9183 79.3046 14.1539C79.3046 15.4075 79.5254 16.3193 79.9698 16.8891C80.4115 17.456 80.9884 17.7409 81.7006 17.7409C82.272 17.7409 82.7468 17.549 83.1305 17.168C83.5142 16.7871 83.7571 16.2023 83.8593 15.4105ZM85.9931 14.1629C85.9931 12.4354 86.4347 11.1547 87.3209 10.324C88.0579 9.63418 88.9578 9.2863 90.0206 9.2863C91.202 9.2863 92.1682 9.70618 92.9162 10.5489C93.6671 11.3887 94.0397 12.5493 94.0397 14.0309C94.0397 15.2336 93.8741 16.1783 93.5429 16.8651C93.2116 17.5549 92.7285 18.0888 92.0965 18.4696C91.4615 18.8505 90.7714 19.0395 90.0206 19.0395C88.8198 19.0395 87.8481 18.6226 87.1056 17.7829C86.363 16.9461 85.9931 15.7405 85.9931 14.1629ZM87.4892 14.1629C87.4892 15.3596 87.7294 16.2533 88.2097 16.8471C88.69 17.4439 89.2945 17.7408 90.0206 17.7408C90.7438 17.7408 91.3455 17.441 91.8259 16.8441C92.3034 16.2473 92.5436 15.3355 92.5436 14.1119C92.5436 12.9573 92.3034 12.0815 91.8203 11.4877C91.3373 10.8938 90.7382 10.5969 90.0206 10.5969C89.2945 10.5969 88.69 10.8938 88.2097 11.4847C87.7294 12.0755 87.4892 12.9692 87.4892 14.1629Z" fill="#7E8BB6"/>
<path fill-rule="evenodd" clip-rule="evenodd" d="M0.176758 0.123491H4.56322C7.23147 0.123491 9.5873 -0.0558917 10.8413 0.74491C14.1133 2.83461 11.6907 5.95066 10.8086 7.33103C10.7685 7.3937 10.7375 7.43314 10.7846 7.46184C11.9206 8.15265 11.8495 8.08865 12.5232 8.71134C15.3801 11.352 15.1292 16.5117 11.4956 18.1264C10.0345 18.7757 8.22584 18.7946 5.38632 18.7946H0.176758V0.123491ZM4.53226 2.66139V16.3504C7.54656 16.408 10.1289 15.8309 9.84259 11.665C9.36003 8.38936 7.33032 8.46355 7.27897 8.42316L7.186 8.35003C7.71933 7.37227 8.48779 6.48361 9.02112 5.50583C9.505 3.86934 8.55405 2.96012 7.42168 2.60942L4.53226 2.66139ZM29.273 0.143227L35.5642 18.9404H39.9693L45.6314 0.101074L42.6427 0.113565L38.4743 14.2215L34.2847 0.953696C34.0036 0.404068 33.5255 0.12589 32.8506 0.118904L29.273 0.143227ZM16.2868 0.123491H20.6732C23.3415 0.123491 25.6973 -0.0558917 26.9513 0.74491C30.2233 2.83461 27.8007 5.95066 26.9186 7.33103C26.8785 7.3937 26.8474 7.43314 26.8946 7.46184C28.0306 8.15265 27.9595 8.08865 28.6332 8.71134C31.4901 11.352 31.2392 16.5117 27.6057 18.1264C26.1445 18.7757 24.3359 18.7946 21.4963 18.7946H16.2868V0.123491ZM20.6423 2.66139V16.3504C23.6566 16.408 26.2389 15.8309 25.9526 11.665C25.4701 8.38936 23.4403 8.46355 23.389 8.42316L23.296 8.35003C23.8293 7.37227 24.5978 6.48361 25.1311 5.50583C25.615 3.86934 24.6641 2.96012 23.5317 2.60942L20.6423 2.66139Z" fill="#7E8BB6" stroke="#7E8BB6" stroke-width="0.216" stroke-miterlimit="2.613"/>
</svg>
