<svg width="75" height="27" viewBox="0 0 75 27" fill="none" xmlns="http://www.w3.org/2000/svg">
<path d="M8.42811 26.9949C6.21524 26.907 4.40478 26.3015 2.98915 25.1769C2.71899 24.962 2.07521 24.3179 1.85923 24.0462C1.28517 23.3243 0.894888 22.6218 0.634573 21.8424C-0.166455 19.4431 0.245805 16.2947 1.81376 12.8394C3.15626 9.88117 5.22779 6.94722 8.84189 2.88373C9.37426 2.2858 10.9596 0.537109 10.9699 0.537109C10.9737 0.537109 10.8873 0.68678 10.7785 0.86904C9.83881 2.44305 9.03475 4.29708 8.59673 5.90217C7.89308 8.47766 7.97796 10.6879 8.84529 12.4017C9.4436 13.5824 10.4693 14.6051 11.6227 15.1704C13.642 16.1598 16.5983 16.2416 20.2086 15.4099C20.4572 15.3523 32.7742 12.0827 47.5799 8.14384C62.3857 4.20463 74.5015 0.984229 74.5034 0.986881C74.5076 0.990297 40.1055 15.7112 22.2468 23.3482C19.4186 24.5573 18.6622 24.8627 17.3326 25.3296C13.9338 26.5231 10.8892 27.0927 8.42811 26.9949Z" fill="white" fill-opacity="0.54"/>
</svg>
