<svg width="49" height="48" viewBox="0 0 49 48" fill="none" xmlns="http://www.w3.org/2000/svg">
<rect width="49" height="48" fill="#F5F5F5"/>
<g id="Sign in" clip-path="url(#clip0_94_157)">
<rect width="1600" height="899.571" transform="translate(-1279.42 -422)" fill="white"/>
<rect id="Rectangle 17" opacity="0.8" x="-1279.42" y="-422" width="1600" height="899.571" fill="#F0F9FF"/>
<g id="Group 325">
<g id="Rectangle 18" filter="url(#filter0_d_94_157)">
<rect x="-356.832" y="-211.436" width="526.536" height="498.44" rx="17" fill="white"/>
</g>
<rect id="Rectangle 123" x="-85.0762" y="-29.6797" width="219.025" height="128.375" rx="7.5" fill="#F9FBFE" stroke="#F0F4F9"/>
<g id="Group 285">
<path id="layer3" d="M24.4341 47.7856C37.5263 47.7856 48.1396 37.1723 48.1396 24.0801C48.1396 10.9879 37.5263 0.374512 24.4341 0.374512C11.3419 0.374512 0.728516 10.9879 0.728516 24.0801C0.728516 37.1723 11.3419 47.7856 24.4341 47.7856Z" fill="#A7C5F2"/>
<path id="opacity" opacity="0.15" d="M36.0545 15.156C36.1984 15.007 36.278 14.8074 36.2762 14.6002C36.2744 14.393 36.1913 14.1948 36.0448 14.0483C35.8983 13.9018 35.7001 13.8187 35.493 13.8169C35.2858 13.8151 35.0862 13.8948 34.9371 14.0387L24.3486 24.6272C23.9291 24.2759 23.4 24.0822 22.8528 24.0796C22.6345 24.0827 22.4176 24.1168 22.2088 24.1807L15.1762 17.9802L13.5516 19.6277C13.419 19.79 13.3564 19.9983 13.3774 20.2068C13.3985 20.4153 13.5015 20.6069 13.6638 20.7395L20.4973 26.33C20.4973 26.3703 20.4854 26.4091 20.4854 26.4494C20.4832 26.907 20.6142 27.3554 20.8623 27.74C21.1104 28.1245 21.465 28.4286 21.8829 28.6152C22.3008 28.8018 22.764 28.8628 23.2159 28.7909C23.6679 28.7189 24.0892 28.5171 24.4285 28.2099L24.4364 28.2146L24.4933 28.1562C24.5201 28.1309 24.5454 28.104 24.5723 28.0771L26.1613 26.4502L25.2234 26.4257C25.2208 26.2931 25.2073 26.1609 25.1831 26.0306L36.0545 15.156Z" fill="#000064"/>
<path id="layer2" d="M24.4346 9.0667C24.225 9.0667 24.024 8.98345 23.8758 8.83526C23.7277 8.68707 23.6444 8.48608 23.6444 8.27651V4.32559C23.6444 4.11602 23.7277 3.91503 23.8758 3.76684C24.024 3.61865 24.225 3.5354 24.4346 3.5354C24.6442 3.5354 24.8452 3.61865 24.9933 3.76684C25.1415 3.91503 25.2248 4.11602 25.2248 4.32559V8.27651C25.2248 8.48608 25.1415 8.68707 24.9933 8.83526C24.8452 8.98345 24.6442 9.0667 24.4346 9.0667ZM24.4346 44.625C24.225 44.625 24.024 44.5418 23.8758 44.3936C23.7277 44.2454 23.6444 44.0444 23.6444 43.8349V39.8839C23.6444 39.6744 23.7277 39.4734 23.8758 39.3252C24.024 39.177 24.225 39.0938 24.4346 39.0938C24.6442 39.0938 24.8452 39.177 24.9933 39.3252C25.1415 39.4734 25.2248 39.6744 25.2248 39.8839V43.8349C25.2248 44.0444 25.1415 44.2454 24.9933 44.3936C24.8452 44.5418 24.6442 44.625 24.4346 44.625ZM8.63088 24.8704H4.67996C4.47039 24.8704 4.2694 24.7872 4.12121 24.639C3.97302 24.4908 3.88977 24.2898 3.88977 24.0802C3.88977 23.8707 3.97302 23.6697 4.12121 23.5215C4.2694 23.3733 4.47039 23.29 4.67996 23.29H8.63088C8.84045 23.29 9.04144 23.3733 9.18963 23.5215C9.33782 23.6697 9.42107 23.8707 9.42107 24.0802C9.42107 24.2898 9.33782 24.4908 9.18963 24.639C9.04144 24.7872 8.84045 24.8704 8.63088 24.8704ZM44.1892 24.8704H40.2383C40.0287 24.8704 39.8277 24.7872 39.6796 24.639C39.5314 24.4908 39.4481 24.2898 39.4481 24.0802C39.4481 23.8707 39.5314 23.6697 39.6796 23.5215C39.8277 23.3733 40.0287 23.29 40.2383 23.29H44.1892C44.3988 23.29 44.5998 23.3733 44.748 23.5215C44.8962 23.6697 44.9794 23.8707 44.9794 24.0802C44.9794 24.2898 44.8962 24.4908 44.748 24.639C44.5998 24.7872 44.3988 24.8704 44.1892 24.8704Z" fill="#7C89AD"/>
<path id="layer2_2" d="M24.4339 26.4505C25.3067 26.4505 26.0143 25.743 26.0143 24.8702C26.0143 23.9974 25.3067 23.2898 24.4339 23.2898C23.5611 23.2898 22.8535 23.9974 22.8535 24.8702C22.8535 25.743 23.5611 26.4505 24.4339 26.4505Z" fill="#7C89AD"/>
<path id="layer2_3" d="M24.4328 27.2411C23.964 27.2411 23.5056 27.1021 23.1158 26.8416C22.726 26.5811 22.4221 26.2109 22.2427 25.7777C22.0633 25.3446 22.0163 24.8679 22.1078 24.4081C22.1993 23.9482 22.425 23.5258 22.7566 23.1943C23.0881 22.8628 23.5105 22.637 23.9703 22.5456C24.4302 22.4541 24.9068 22.501 25.34 22.6804C25.7731 22.8599 26.1434 23.1637 26.4039 23.5535C26.6643 23.9434 26.8034 24.4017 26.8034 24.8706C26.8034 25.4993 26.5536 26.1022 26.109 26.5468C25.6645 26.9914 25.0615 27.2411 24.4328 27.2411ZM24.4328 24.0804C24.2765 24.0804 24.1238 24.1267 23.9938 24.2135C23.8639 24.3004 23.7626 24.4238 23.7028 24.5682C23.643 24.7126 23.6273 24.8714 23.6578 25.0247C23.6883 25.178 23.7636 25.3188 23.8741 25.4293C23.9846 25.5398 24.1254 25.6151 24.2787 25.6456C24.4319 25.676 24.5908 25.6604 24.7352 25.6006C24.8796 25.5408 25.003 25.4395 25.0898 25.3096C25.1767 25.1796 25.223 25.0268 25.223 24.8706C25.223 24.661 25.1397 24.46 24.9916 24.3118C24.8434 24.1636 24.6424 24.0804 24.4328 24.0804Z" fill="#7C89AD"/>
<path id="layer2_4" d="M22.9182 25.2122C22.736 25.2123 22.5594 25.1489 22.4188 25.0329L15.2408 19.1602C15.1587 19.0951 15.0903 19.0143 15.0397 18.9226C14.9891 18.8308 14.9572 18.7299 14.946 18.6257C14.9347 18.5216 14.9443 18.4162 14.9742 18.3157C15.004 18.2153 15.0536 18.1218 15.1199 18.0407C15.1863 17.9596 15.2681 17.8924 15.3606 17.8432C15.4531 17.794 15.5545 17.7637 15.6588 17.7541C15.7632 17.7444 15.8684 17.7556 15.9684 17.787C16.0683 17.8184 16.1611 17.8694 16.2412 17.937L23.4192 23.8096C23.5454 23.9129 23.6366 24.0527 23.6802 24.2098C23.7239 24.3669 23.7178 24.5336 23.663 24.6872C23.6081 24.8407 23.5071 24.9735 23.3737 25.0674C23.2404 25.1613 23.0813 25.2124 22.9182 25.2122ZM25.8727 25.0107C25.7165 25.0107 25.5637 24.9643 25.4338 24.8775C25.3039 24.7907 25.2026 24.6673 25.1429 24.5229C25.0831 24.3785 25.0674 24.2197 25.0979 24.0664C25.1284 23.9132 25.2036 23.7724 25.3141 23.6619L36.5173 12.4586C36.6663 12.3147 36.866 12.235 37.0731 12.2368C37.2803 12.2386 37.4785 12.3218 37.625 12.4683C37.7715 12.6148 37.8546 12.813 37.8564 13.0201C37.8582 13.2273 37.7786 13.4269 37.6346 13.576L26.4314 24.7792C26.2832 24.9274 26.0823 25.0107 25.8727 25.0107Z" fill="#7C89AD"/>
</g>
</g>
</g>
<defs>
<filter id="filter0_d_94_157" x="-363.832" y="-218.436" width="552.536" height="524.44" filterUnits="userSpaceOnUse" color-interpolation-filters="sRGB">
<feFlood flood-opacity="0" result="BackgroundImageFix"/>
<feColorMatrix in="SourceAlpha" type="matrix" values="0 0 0 0 0 0 0 0 0 0 0 0 0 0 0 0 0 0 127 0" result="hardAlpha"/>
<feOffset dx="6" dy="6"/>
<feGaussianBlur stdDeviation="6.5"/>
<feComposite in2="hardAlpha" operator="out"/>
<feColorMatrix type="matrix" values="0 0 0 0 0.814583 0 0 0 0 0.900833 0 0 0 0 0.958333 0 0 0 0.38 0"/>
<feBlend mode="normal" in2="BackgroundImageFix" result="effect1_dropShadow_94_157"/>
<feBlend mode="normal" in="SourceGraphic" in2="effect1_dropShadow_94_157" result="shape"/>
</filter>
<clipPath id="clip0_94_157">
<rect width="1600" height="899.571" fill="white" transform="translate(-1279.42 -422)"/>
</clipPath>
</defs>
</svg>
