<svg width="40" height="50" viewBox="0 0 40 50" fill="none" xmlns="http://www.w3.org/2000/svg">
<path d="M37.5227 0.313965H3.30421C2.67105 0.313965 2.06382 0.573698 1.61611 1.03603C1.16839 1.49835 0.91687 2.12541 0.91687 2.77924V47.1541C0.91687 47.808 1.16839 48.435 1.61611 48.8974C2.06382 49.3597 2.67105 49.6194 3.30421 49.6194H37.5227C38.1559 49.6194 38.7631 49.3597 39.2108 48.8974C39.6586 48.435 39.9101 47.808 39.9101 47.1541V2.77924C39.9101 2.12541 39.6586 1.49835 39.2108 1.03603C38.7631 0.573698 38.1559 0.313965 37.5227 0.313965Z" fill="#A7C5F2"/>
<path opacity="0.14" d="M3.3031 37.2931V4.42283L4.09888 3.60107L35.9301 4.42283L36.6924 36.5231L35.9301 37.2931H3.3031Z" fill="white"/>
<path d="M4.10339 3.60107H36.7304V36.4714H4.10339V3.60107Z" fill="#E1F0FF"/>
<path d="M10.0044 10.9966C9.79334 10.9966 9.59094 10.91 9.4417 10.7559C9.29246 10.6018 9.20862 10.3928 9.20862 10.1749C9.20862 9.95691 9.29246 9.7479 9.4417 9.59379C9.59094 9.43968 9.79334 9.3531 10.0044 9.3531L27.9747 9.3457C28.1858 9.3457 28.3882 9.43228 28.5374 9.58639C28.6866 9.7405 28.7705 9.94952 28.7705 10.1675C28.7705 10.3854 28.6866 10.5944 28.5374 10.7485C28.3882 10.9026 28.1858 10.9892 27.9747 10.9892L10.0044 10.9966ZM10.0044 16.7571C9.79334 16.7571 9.59094 16.6706 9.4417 16.5164C9.29246 16.3623 9.20862 16.1533 9.20862 15.9354C9.20862 15.7174 9.29246 15.5084 9.4417 15.3543C9.59094 15.2002 9.79334 15.1136 10.0044 15.1136L31.1578 15.1054C31.3689 15.1054 31.5713 15.192 31.7205 15.3461C31.8698 15.5002 31.9536 15.7092 31.9536 15.9272C31.9536 16.1451 31.8698 16.3541 31.7205 16.5082C31.5713 16.6623 31.3689 16.7489 31.1578 16.7489L10.0044 16.7571ZM10.4675 28.2535C10.2565 28.2535 10.0541 28.1669 9.90484 28.0128C9.7556 27.8587 9.67176 27.6497 9.67176 27.4318C9.67176 27.2138 9.7556 27.0048 9.90484 26.8507C10.0541 26.6966 10.2565 26.61 10.4675 26.61L31.621 26.6018C31.832 26.6018 32.0344 26.6884 32.1837 26.8425C32.3329 26.9966 32.4167 27.2056 32.4167 27.4235C32.4167 27.6415 32.3329 27.8505 32.1837 28.0046C32.0344 28.1587 31.832 28.2453 31.621 28.2453L10.4675 28.2535ZM10.0044 22.5094C9.79334 22.5094 9.59094 22.4229 9.4417 22.2687C9.29246 22.1146 9.20862 21.9056 9.20862 21.6877C9.20862 21.4697 9.29246 21.2607 9.4417 21.1066C9.59094 20.9525 9.79334 20.8659 10.0044 20.8659L23.2 20.8577C23.4111 20.8577 23.6135 20.9443 23.7627 21.0984C23.912 21.2525 23.9958 21.4615 23.9958 21.6795C23.9958 21.8974 23.912 22.1064 23.7627 22.2605C23.6135 22.4146 23.4111 22.5012 23.2 22.5012L10.0044 22.5094Z" fill="#FFB5AC"/>
<path d="M5.22827 43.8676C5.01722 43.8676 4.81481 43.781 4.66557 43.6269C4.51634 43.4728 4.4325 43.2637 4.4325 43.0458C4.4325 42.8279 4.51634 42.6188 4.66557 42.4647C4.81481 42.3106 5.01722 42.224 5.22827 42.224L8.87454 42.2158C9.08559 42.2158 9.288 42.3024 9.43724 42.4565C9.58648 42.6106 9.67032 42.8196 9.67032 43.0376C9.67032 43.2555 9.58648 43.4645 9.43724 43.6186C9.288 43.7728 9.08559 43.8593 8.87454 43.8593L5.22987 43.8676H5.22827ZM31.489 43.8676C31.278 43.8676 31.0755 43.781 30.9263 43.6269C30.7771 43.4728 30.6932 43.2637 30.6932 43.0458C30.6932 42.8279 30.7771 42.6188 30.9263 42.4647C31.0755 42.3106 31.278 42.224 31.489 42.224L35.1353 42.2158C35.3463 42.2158 35.5487 42.3024 35.698 42.4565C35.8472 42.6106 35.9311 42.8196 35.9311 43.0376C35.9311 43.2555 35.8472 43.4645 35.698 43.6186C35.5487 43.7728 35.3463 43.8593 35.1353 43.8593L31.4906 43.8676H31.489ZM15.2408 43.8676C15.0297 43.8676 14.8273 43.781 14.6781 43.6269C14.5288 43.4728 14.445 43.2637 14.445 43.0458C14.445 42.8279 14.5288 42.6188 14.6781 42.4647C14.8273 42.3106 15.0297 42.224 15.2408 42.224L24.7901 42.2158C25.0012 42.2158 25.2036 42.3024 25.3528 42.4565C25.5021 42.6106 25.5859 42.8196 25.5859 43.0376C25.5859 43.2555 25.5021 43.4645 25.3528 43.6186C25.2036 43.7728 25.0012 43.8593 24.7901 43.8593L15.2408 43.8676Z" fill="#E1F0FF"/>
</svg>
