<svg width="57" height="46" viewBox="0 0 57 46" fill="none" xmlns="http://www.w3.org/2000/svg">
<rect width="57" height="46" fill="#F5F5F5"/>
<g id="Sign in" clip-path="url(#clip0_94_157)">
<rect width="1600" height="899.571" transform="translate(-1275.42 -268)" fill="white"/>
<rect id="Rectangle 17" opacity="0.8" x="-1275.42" y="-268" width="1600" height="899.571" fill="#F0F9FF"/>
<g id="Group 325">
<g id="Rectangle 18" filter="url(#filter0_d_94_157)">
<rect x="-352.832" y="-57.4355" width="526.536" height="498.44" rx="17" fill="white"/>
</g>
<rect id="Rectangle 121" x="-81.0762" y="-25.0547" width="219.025" height="128.375" rx="7.5" fill="#F9FBFE" stroke="#F0F4F9"/>
<g id="Group 287">
<g id="Group 286">
<path id="layer1" d="M30.2745 3.32411C27.8149 0.863596 24.8516 0.80661 22.8957 2.76068C21.7082 3.9482 21.2054 4.59894 19.2072 4.59894C17.5592 4.59894 15.5923 2.31766 15.5923 2.31766L0.862305 17.044L6.78886 22.9733L5.57101 24.1939C4.91295 24.8884 4.55154 25.812 4.56354 26.7687C4.57554 27.7254 4.95999 28.6397 5.63526 29.3175C6.31052 29.9953 7.2234 30.3831 8.18002 30.3986C9.13664 30.4142 10.0616 30.0562 10.7586 29.4007L9.4718 30.6875C8.80714 31.3818 8.44079 32.3088 8.45122 33.2699C8.46165 34.2309 8.84803 35.1497 9.5276 35.8294C10.2072 36.5091 11.1259 36.8956 12.087 36.9062C13.0481 36.9169 13.9751 36.5507 14.6695 35.8861L15.9627 34.592C15.2987 35.287 14.9334 36.2143 14.9448 37.1754C14.9562 38.1365 15.3436 39.0549 16.0239 39.7339C16.7042 40.4129 17.6233 40.7984 18.5845 40.808C19.5456 40.8176 20.4722 40.4504 21.1659 39.7851L22.1861 38.763C21.5227 39.4586 21.1581 40.3863 21.1704 41.3474C21.1826 42.3085 21.5708 43.2266 22.2517 43.905C22.9327 44.5834 23.8522 44.9682 24.8133 44.9768C25.7745 44.9855 26.7008 44.6175 27.3939 43.9515L28.5364 42.8063L29.678 43.9515C30.3463 44.62 31.2471 45.0045 32.1921 45.0247C33.1372 45.045 34.0536 44.6994 34.75 44.0602C35.4464 43.4209 35.869 42.5374 35.9296 41.5941C35.9901 40.6507 35.684 39.7204 35.0751 38.9974L35.0962 38.9744L35.9115 39.7897C36.6073 40.4463 37.5316 40.8059 38.4882 40.792C39.4448 40.7781 40.3584 40.3919 41.0348 39.7153C41.7112 39.0388 42.0973 38.1252 42.111 37.1686C42.1247 36.2119 41.765 35.2877 41.1083 34.592L42.407 35.8907C42.7486 36.2322 43.1542 36.503 43.6005 36.6878C44.0468 36.8725 44.5251 36.9675 45.0082 36.9674C45.4912 36.9672 45.9695 36.872 46.4157 36.687C46.8619 36.502 47.2673 36.231 47.6088 35.8894C47.9503 35.5477 48.2211 35.1421 48.4058 34.6958C48.5906 34.2495 48.6856 33.7712 48.6854 33.2882C48.6853 32.8051 48.5901 32.3268 48.4051 31.8806C48.2201 31.4344 47.9491 31.029 47.6074 30.6875L44.4208 27.5009V27.4963L46.3124 29.3888C47.0044 30.0656 47.9354 30.4422 48.9033 30.4369C49.8712 30.4315 50.798 30.0447 51.4825 29.3603C52.167 28.6759 52.554 27.7492 52.5595 26.7813C52.565 25.8134 52.1886 24.8823 51.5119 24.1902L50.2894 22.9668L56.0101 17.2471L39.6615 0.907715H35.7892C33.7127 0.991837 31.7439 1.85449 30.2745 3.32411Z" fill="#F3CFC9"/>
<path id="opacity" opacity="0.15" d="M39.6618 0.907715H35.6728C33.1461 0.907715 31.4384 1.9978 28.4365 5.00336L25.8381 7.60174C25.1734 8.29602 24.8071 9.22298 24.8175 10.1841C24.8279 11.1451 25.2143 12.0639 25.8939 12.7436C26.5735 13.4233 27.4922 13.8099 28.4533 13.8205C29.4144 13.8311 30.3414 13.4649 31.0358 12.8003L31.806 12.0393C34.4522 9.3922 36.9292 9.60544 39.1738 11.8481L50.2897 22.9668L56.0104 17.2471L39.6618 0.907715ZM13.3627 26.7941C13.722 26.4571 14.0099 26.0512 14.2093 25.6008C14.4087 25.1503 14.5155 24.6643 14.5235 24.1717C14.5314 23.6792 14.4402 23.19 14.2554 22.7334C14.0706 22.2767 13.7958 21.8619 13.4476 21.5135C13.0993 21.1651 12.6845 20.8902 12.2279 20.7052C11.7713 20.5202 11.2822 20.4289 10.7897 20.4366C10.2971 20.4444 9.81109 20.551 9.36054 20.7503C8.90998 20.9495 8.50407 21.2372 8.1669 21.5964L5.57035 24.1939C4.9057 24.8882 4.53935 25.8151 4.54978 26.7762C4.56021 27.7373 4.94659 28.6561 5.62616 29.3358C6.30573 30.0155 7.22445 30.402 8.18553 30.4126C9.14662 30.4232 10.0736 30.057 10.768 29.3925L13.3627 26.7941Z" fill="#211F5E"/>
<path id="opacity_2" opacity="0.15" d="M18.5616 31.9908C19.2509 31.3011 19.6381 30.3659 19.638 29.3908C19.6378 28.4157 19.2503 27.4806 18.5607 26.7912C17.871 26.1019 16.9358 25.7147 15.9607 25.7148C14.9856 25.715 14.0505 26.1025 13.3611 26.7922L9.46586 30.6874C8.8012 31.3817 8.43485 32.3087 8.44529 33.2698C8.45572 34.2308 8.8421 35.1496 9.52167 35.8293C10.2012 36.509 11.12 36.8955 12.081 36.9061C13.0421 36.9168 13.9691 36.5506 14.6635 35.886L18.5616 31.9908ZM23.7574 37.1903C24.4143 36.4947 24.7742 35.5705 24.7606 34.6139C24.7471 33.6573 24.3612 32.7436 23.6849 32.0669C23.0085 31.3903 22.0951 31.0039 21.1385 30.9898C20.1819 30.9758 19.2575 31.3342 18.5616 31.9908L15.9632 34.5901C15.3066 35.2858 14.947 36.2102 14.9609 37.1668C14.9748 38.1234 15.361 39.0369 16.0376 39.7134C16.7141 40.3898 17.6277 40.7759 18.5843 40.7896C19.5409 40.8033 20.4652 40.4436 21.1609 39.7868L23.7574 37.1903Z" fill="#211F5E"/>
<path id="opacity_3" opacity="0.15" d="M28.6745 42.6704C29.0158 42.329 29.2866 41.9236 29.4713 41.4775C29.6559 41.0314 29.751 40.5533 29.7509 40.0705C29.7508 39.5877 29.6556 39.1096 29.4708 38.6636C29.2859 38.2175 29.015 37.8123 28.6736 37.4709C28.3321 37.1296 27.9267 36.8588 27.4806 36.6741C27.0345 36.4895 26.5564 36.3944 26.0736 36.3945C25.5908 36.3946 25.1127 36.4898 24.6667 36.6746C24.2206 36.8595 23.8154 37.1304 23.474 37.4718L22.1946 38.7513C21.5248 39.4446 21.154 40.3732 21.1622 41.3372C21.1704 42.3011 21.5569 43.2233 22.2385 43.9051C22.92 44.5869 23.8421 44.9737 24.806 44.9822C25.77 44.9908 26.6988 44.6204 27.3923 43.9508L28.6745 42.6704Z" fill="#211F5E"/>
</g>
</g>
</g>
</g>
<defs>
<filter id="filter0_d_94_157" x="-359.832" y="-64.4355" width="552.536" height="524.44" filterUnits="userSpaceOnUse" color-interpolation-filters="sRGB">
<feFlood flood-opacity="0" result="BackgroundImageFix"/>
<feColorMatrix in="SourceAlpha" type="matrix" values="0 0 0 0 0 0 0 0 0 0 0 0 0 0 0 0 0 0 127 0" result="hardAlpha"/>
<feOffset dx="6" dy="6"/>
<feGaussianBlur stdDeviation="6.5"/>
<feComposite in2="hardAlpha" operator="out"/>
<feColorMatrix type="matrix" values="0 0 0 0 0.814583 0 0 0 0 0.900833 0 0 0 0 0.958333 0 0 0 0.38 0"/>
<feBlend mode="normal" in2="BackgroundImageFix" result="effect1_dropShadow_94_157"/>
<feBlend mode="normal" in="SourceGraphic" in2="effect1_dropShadow_94_157" result="shape"/>
</filter>
<clipPath id="clip0_94_157">
<rect width="1600" height="899.571" fill="white" transform="translate(-1275.42 -268)"/>
</clipPath>
</defs>
</svg>
