<svg width="69" height="41" viewBox="0 0 69 41" fill="none" xmlns="http://www.w3.org/2000/svg">
<path d="M7.72482 28.5437V28.14L7.55082 28.0231H0.616022L0.500488 28.1387V28.5437L0.616022 28.6593H3.56283L3.67836 28.7748V37.2129L3.79389 37.3284H4.31449L4.43002 37.2129V28.8332L4.54556 28.7163H7.55222L7.72482 28.5437ZM9.28661 30.5676C7.43668 30.5676 6.33563 31.8956 6.33563 33.8026V34.0935C6.33563 35.9434 7.26129 37.5595 9.40075 37.5595C11.2507 37.5595 11.9439 36.3457 12.0594 35.537L11.9453 35.4228H11.4233L11.3091 35.537C11.0196 36.3457 10.4976 36.8663 9.45783 36.8663C7.72343 36.8663 7.20283 35.2475 7.20283 34.4387L7.32115 34.3246H12.1165L12.2334 34.2076V33.8026C12.2334 31.8956 11.1936 30.5676 9.28661 30.5676ZM9.28661 31.2608C10.0953 31.2608 10.6285 31.5935 10.9612 32.0403C11.2938 32.4886 11.4233 33.0523 11.4233 33.5144L11.3091 33.6314H7.26408L7.14715 33.5144C7.14715 33.0523 7.27661 32.4886 7.60929 32.0403C7.94058 31.5935 8.47648 31.2608 9.28661 31.2608ZM13.5627 34.035C13.5627 32.1837 14.487 31.2024 15.8177 31.2024C17.1457 31.2024 17.6663 32.0111 17.8389 32.8212L17.9544 32.9368H18.5335L18.649 32.8212C18.5335 31.4919 17.4352 30.5663 15.8163 30.5663C14.082 30.5663 12.754 31.6659 12.754 34.035C12.754 36.4626 14.082 37.5024 15.8163 37.5024C17.4352 37.5024 18.475 36.5782 18.649 35.2475L18.5335 35.1333H18.0129L17.8973 35.2488C17.7818 36.0562 17.2041 36.8663 15.8748 36.8663C14.5455 36.8663 13.5627 35.942 13.5627 34.035ZM25.1217 37.2714V33.2249C25.1217 31.4919 24.1974 30.5663 22.6941 30.5663C21.7698 30.5663 20.9611 30.9699 20.556 31.6659H20.4405V28.1957L20.2665 28.0217H19.7473L19.6317 28.1373V37.2686L19.7473 37.3855H20.2665L20.382 37.27V33.6286C20.382 32.1253 21.0766 31.201 22.5215 31.201C23.6197 31.201 24.2545 31.8942 24.2545 33.2235V37.27L24.37 37.3855H24.8906L25.1217 37.2714ZM31.9423 37.2714V33.2249C31.9423 31.4919 31.0181 30.5663 29.5147 30.5663C28.5905 30.5663 27.7803 30.9699 27.3767 31.6659H27.2611L27.1456 30.8558L27.0301 30.7402H26.625L26.5095 30.8558V37.2714L26.625 37.3869H27.1456L27.2611 37.2714V33.6286C27.2611 32.1253 27.9543 31.201 29.3992 31.201C30.4975 31.201 31.1336 31.8942 31.1336 33.2235V37.27L31.2491 37.3855H31.8268L31.9423 37.2714ZM35.8148 30.6247C34.0818 30.6247 32.7525 31.8399 32.7525 34.0935C32.7525 36.3485 34.0818 37.5595 35.8148 37.5595C37.5478 37.5595 38.8799 36.3485 38.8799 34.0935C38.8799 31.8385 37.5492 30.6247 35.8148 30.6247ZM35.8148 31.2608C36.4802 31.2608 37.0439 31.5365 37.4406 32.0264C37.8387 32.5192 38.0684 33.2263 38.0684 34.0935C38.0684 34.9607 37.8387 35.6678 37.442 36.1592C37.0439 36.6506 36.4802 36.9248 35.8148 36.9248C35.5033 36.9303 35.1946 36.8642 34.9127 36.7315C34.6308 36.5987 34.3832 36.4029 34.189 36.1592C33.7923 35.6692 33.5626 34.9607 33.5626 34.0935C33.5626 33.1971 33.7923 32.49 34.189 32.0056C34.5871 31.5211 35.1494 31.2608 35.8148 31.2608ZM40.67 37.2714V28.14L40.496 28.0231H39.9768L39.8599 28.1387V37.2714L39.9768 37.3869H40.496L40.67 37.2714ZM44.6594 30.6247C42.925 30.6247 41.5957 31.8399 41.5957 34.0935C41.5957 36.3485 42.925 37.5595 44.658 37.5595C46.391 37.5595 47.7203 36.3485 47.7203 34.0935C47.7203 31.8385 46.3938 30.6247 44.6594 30.6247ZM44.6594 31.2608C45.3234 31.2608 45.8843 31.5365 46.2824 32.0264C46.6791 32.5192 46.913 33.2263 46.913 34.0935C46.913 34.9607 46.6791 35.6678 46.2824 36.1592C46.0889 36.4029 45.8418 36.5988 45.5603 36.7316C45.2788 36.8643 44.9706 36.9304 44.6594 36.9248C44.3478 36.9303 44.0392 36.8642 43.7573 36.7315C43.4753 36.5987 43.2277 36.4029 43.0336 36.1592C42.6341 35.6678 42.4002 34.9607 42.4002 34.0935C42.4002 33.1971 42.6327 32.49 43.0308 32.0056C43.4275 31.5211 43.9912 31.2608 44.6566 31.2608H44.6594ZM51.2462 30.5676C49.3963 30.5676 48.4135 32.0682 48.4135 34.0337C48.4135 36.0562 49.3392 37.5024 51.2462 37.5024C52.46 37.5024 53.0975 36.9818 53.3857 36.4042V36.4613C53.3857 38.1956 52.982 39.525 51.3631 39.525C50.1493 39.525 49.7443 39.0072 49.6287 38.314L49.5118 38.1956H48.9926L48.8757 38.3126C48.9912 39.4122 49.8027 40.1611 51.4202 40.1611C53.1546 40.1611 54.2528 39.0628 54.2528 36.4042V30.8558L54.1359 30.7416H53.7323L53.6167 30.8558L53.4998 31.6659H53.3857C53.0975 31.1453 52.46 30.5663 51.2462 30.5663V30.5676ZM51.2462 31.2038C51.9116 31.2038 52.4461 31.4321 52.8149 31.9025C53.1838 32.3716 53.3857 33.0802 53.3857 34.0337C53.3857 34.9872 53.1838 35.6957 52.8149 36.1648C52.4461 36.6352 51.9102 36.8663 51.2462 36.8663C50.5822 36.8663 50.0463 36.6352 49.6774 36.1648C49.3086 35.6957 49.1095 34.9872 49.1095 34.0337C49.1095 33.1094 49.3086 32.4009 49.6774 31.9234C50.0463 31.4474 50.5822 31.2038 51.2462 31.2038ZM56.3325 29.5264V28.7177L56.2169 28.6022H55.6977L55.5237 28.7177V29.5264L55.6393 29.642H56.1599L56.3325 29.5264ZM56.3325 37.2714V30.8558L56.2169 30.7402H55.6977L55.5237 30.8558V37.2714L55.6393 37.3869H56.1599L56.3325 37.2714ZM60.2049 30.5676C58.355 30.5676 57.2581 31.8956 57.2581 33.8026V34.0949C57.2581 35.9434 58.1824 37.5609 60.3205 37.5609C62.1718 37.5609 62.865 36.3457 62.9805 35.537L62.8636 35.4228H62.3444L62.2275 35.537C61.9379 36.3457 61.4201 36.8663 60.3789 36.8663C58.6445 36.8663 58.1239 35.2475 58.1239 34.4387L58.2422 34.3246H63.0376L63.1545 34.2076V33.804C63.1545 31.9527 62.0549 30.5676 60.2049 30.5676ZM60.2049 31.2608C61.0137 31.2608 61.5496 31.5935 61.8822 32.0403C62.2149 32.4886 62.3444 33.0523 62.3444 33.5158L62.2275 33.6314H58.1824L58.0682 33.5144C58.0682 33.0523 58.1977 32.4886 58.5304 32.0403C58.8631 31.5935 59.3962 31.2608 60.2049 31.2608ZM68.8171 35.6525C68.8171 34.4387 68.1238 33.9195 66.7945 33.63C65.4652 33.3405 64.6565 33.2263 64.6565 32.3006C64.6565 31.6074 65.1757 31.2024 66.1598 31.2024C67.3722 31.2024 67.7773 31.723 67.7773 32.4162L67.8928 32.5317H68.4134L68.5289 32.4162C68.5289 31.0868 67.4293 30.5663 66.1013 30.5663C64.598 30.5663 63.8463 31.3764 63.8463 32.3006C63.8463 33.3989 64.6565 33.9195 65.9858 34.1506C67.3151 34.4387 68.0083 34.5543 68.0083 35.6539C68.0083 36.3471 67.6046 36.8663 66.2739 36.8663C65.0601 36.8663 64.5409 36.1731 64.5409 35.363L64.424 35.2488H63.9048L63.7893 35.3644C63.7893 36.5782 64.7135 37.5024 66.3324 37.5024C68.0083 37.5609 68.8171 36.7508 68.8171 35.6525Z" fill="#7E8BB6"/>
<path d="M68.8171 18.2901V22.3929H55.9176V2.16275H60.6056V18.2871L68.8171 18.2901ZM29.817 0.989258L18.3866 9.78898C17.2131 5.39061 13.4 2.16275 8.71197 2.16275H0.500488V22.3929H8.71197C13.4 22.3929 17.5057 19.168 18.3866 14.7696L29.817 23.5664L41.2533 14.7696V22.3929H54.1528V18.2871H45.6577V2.16275H40.9607V9.78301L30.1126 18.5857L27.7686 16.5314L33.0478 12.4256L38.6197 8.02725L35.3948 5.3936L24.5467 13.8888L22.2027 11.8374L33.0478 3.62589L29.823 0.989258L29.817 0.989258ZM4.89587 6.2685H8.41337C9.14494 6.2685 9.86457 6.43273 10.5245 6.73431C11.1844 7.0359 11.7905 7.48081 12.3041 8.02725C12.8177 8.57966 13.2358 9.23359 13.5284 9.9771C13.821 10.7176 13.9823 11.5477 13.9823 12.4256C13.9823 13.2318 13.8389 14.0172 13.5702 14.7457C13.2985 15.4743 12.9043 16.1432 12.4056 16.7135C11.913 17.2808 11.3217 17.7467 10.6469 18.0721C9.97505 18.3976 9.21959 18.5798 8.41337 18.5798H4.89587V6.2685Z" fill="#7E8BB6"/>
</svg>
