<?xml version="1.0" encoding="utf-8"?>
<!-- Generator: Adobe Illustrator 25.2.1, SVG Export Plug-In . SVG Version: 6.00 Build 0)  -->
<svg version="1.1" id="Layer_1" xmlns="http://www.w3.org/2000/svg" xmlns:xlink="http://www.w3.org/1999/xlink" x="0px" y="0px"
	 viewBox="0 0 703.5 230.9" style="enable-background:new 0 0 703.5 230.9;" xml:space="preserve">
<style type="text/css">
	.st0{fill:#15BFF1;}
	.st1{fill:#0A509F;}
</style>
<g>
	<polygon class="st0" points="193.5,157.8 151.3,230.9 115.6,230.9 175.7,126.9 211.4,126.9 	"/>
	<polygon class="st0" points="193.5,73.1 151.3,0 115.6,0 175.7,104.1 211.4,104.1 	"/>
	<polygon class="st1" points="17.9,84.5 35.7,115.5 37.2,117.9 78,188.6 120.2,115.5 78,42.3 53.6,84.5 35.7,53.6 66.7,0 89.2,0 
		155.9,115.5 89.3,230.9 66.7,230.9 0,115.5 	"/>
	<g>
		<path class="st1" d="M326.3,129.1c-1.4,11.6-5.6,20.5-12.8,26.8c-7.2,6.3-16.8,9.4-28.7,9.4c-12.9,0-23.3-4.6-31.1-13.9
			c-7.8-9.3-11.7-21.7-11.7-37.2v-10.5c0-10.2,1.8-19.1,5.5-26.9c3.6-7.7,8.8-13.7,15.5-17.8c6.7-4.1,14.4-6.2,23.2-6.2
			c11.6,0,21,3.2,28,9.7c7,6.5,11.1,15.5,12.3,27h-14.5c-1.3-8.8-4-15.1-8.2-19c-4.2-3.9-10-5.9-17.6-5.9c-9.2,0-16.5,3.4-21.7,10.2
			c-5.2,6.8-7.9,16.5-7.9,29.1v10.6c0,11.9,2.5,21.4,7.4,28.4c5,7,11.9,10.5,20.8,10.5c8,0,14.2-1.8,18.5-5.5c4.3-3.6,7.1-10,8.5-19
			H326.3z"/>
		<path class="st1" d="M359,163.9h-13.9V48.4H359V163.9z"/>
		<path class="st1" d="M431.5,163.9c-0.8-1.6-1.5-4.5-2-8.6c-6.5,6.7-14.2,10.1-23.2,10.1c-8,0-14.6-2.3-19.7-6.8
			c-5.1-4.5-7.7-10.3-7.7-17.3c0-8.5,3.2-15.1,9.7-19.7c6.4-4.7,15.5-7,27.2-7h13.5v-6.4c0-4.9-1.5-8.7-4.4-11.6
			c-2.9-2.9-7.2-4.3-12.9-4.3c-5,0-9.1,1.3-12.5,3.8c-3.4,2.5-5,5.5-5,9.1h-14c0-4.1,1.4-8,4.3-11.8c2.9-3.8,6.8-6.8,11.7-9
			c4.9-2.2,10.4-3.3,16.3-3.3c9.4,0,16.7,2.3,22,7c5.3,4.7,8.1,11.1,8.3,19.4v37.5c0,7.5,1,13.4,2.9,17.8v1.2H431.5z M408.4,153.3
			c4.4,0,8.5-1.1,12.4-3.4c3.9-2.3,6.7-5.2,8.5-8.8v-16.7h-10.9c-17.1,0-25.6,5-25.6,15c0,4.4,1.5,7.8,4.4,10.2
			C400.1,152.1,403.8,153.3,408.4,153.3z"/>
		<path class="st1" d="M533.8,124.1c0,12.4-2.8,22.4-8.5,29.9c-5.7,7.6-13.3,11.4-23,11.4c-9.9,0-17.7-3.1-23.3-9.4v39.2h-13.9V82.5
			h12.7l0.7,9c5.7-7,13.5-10.5,23.6-10.5c9.8,0,17.5,3.7,23.2,11.1c5.7,7.4,8.5,17.6,8.5,30.8V124.1z M519.9,122.5
			c0-9.2-2-16.4-5.9-21.7c-3.9-5.3-9.3-8-16.1-8c-8.4,0-14.7,3.7-19,11.2v38.9c4.2,7.4,10.5,11.1,19.1,11.1c6.7,0,12-2.6,15.9-7.9
			C517.9,140.8,519.9,133,519.9,122.5z"/>
		<path class="st1" d="M620.3,124.1c0,12.4-2.8,22.4-8.5,29.9c-5.7,7.6-13.3,11.4-23,11.4c-9.9,0-17.7-3.1-23.3-9.4v39.2h-13.9V82.5
			h12.7l0.7,9c5.7-7,13.5-10.5,23.6-10.5c9.8,0,17.5,3.7,23.2,11.1c5.7,7.4,8.5,17.6,8.5,30.8V124.1z M606.3,122.5
			c0-9.2-2-16.4-5.9-21.7c-3.9-5.3-9.3-8-16.1-8c-8.4,0-14.7,3.7-19,11.2v38.9c4.2,7.4,10.5,11.1,19.1,11.1c6.7,0,12-2.6,15.9-7.9
			C604.4,140.8,606.3,133,606.3,122.5z"/>
		<path class="st1" d="M671.7,165.4c-11,0-20-3.6-26.9-10.9c-6.9-7.2-10.4-16.9-10.4-29.1v-2.6c0-8.1,1.5-15.3,4.6-21.6
			c3.1-6.3,7.4-11.3,12.9-14.9c5.5-3.6,11.5-5.4,18-5.4c10.6,0,18.8,3.5,24.7,10.5c5.9,7,8.8,17,8.8,29.9v5.8h-55.1
			c0.2,8,2.5,14.5,7,19.4c4.5,4.9,10.2,7.4,17.1,7.4c4.9,0,9.1-1,12.5-3c3.4-2,6.4-4.7,9-8l8.5,6.6
			C695.6,160.2,685.4,165.4,671.7,165.4z M670,92.4c-5.6,0-10.3,2-14.1,6.1c-3.8,4.1-6.2,9.8-7.1,17.2h40.8v-1.1
			c-0.4-7.1-2.3-12.6-5.7-16.4C680.4,94.4,675.8,92.4,670,92.4z"/>
	</g>
</g>
</svg>
