<svg width="88" height="35" viewBox="0 0 88 35" fill="none" xmlns="http://www.w3.org/2000/svg">
<path fill-rule="evenodd" clip-rule="evenodd" d="M32.1839 0.621094C28.6848 0.621094 26.1275 2.94423 25.7682 7.03673H23.0669V9.06272H25.7403V28.5338H28.7793V9.06272H35.5605C33.0393 11.1013 31.4239 14.432 31.4239 18.1518C31.4239 24.3234 35.8748 29.3109 41.3855 29.3794C41.4125 29.3929 41.4557 29.4073 41.498 29.4073C47.0636 29.4073 51.5433 24.3648 51.5433 18.1518C51.5433 17.4215 51.4704 16.6885 51.3461 15.9853C52.3519 17.5836 54.2717 18.3859 56.8334 19.5024C59.8778 20.7837 61.5607 21.8922 61.5607 23.8083C61.5607 26.109 59.4123 27.2822 56.9739 27.2687C54.5904 27.2687 52.7094 26.3007 50.6429 24.4269V28.0287C51.9098 28.8427 53.8674 29.3235 55.9897 29.3235C57.615 29.3082 60.3055 28.9381 62.1514 27.3813C63.322 26.4034 64.1495 24.9294 64.1495 22.7665C64.1351 20.9899 63.3508 19.7635 62.1514 18.7992C61.1051 17.96 59.7571 17.309 58.3525 16.7165C54.6877 14.8976 53.3028 14.5194 53.3442 12.4394C53.3442 9.66962 55.734 8.83761 57.6213 8.83761C58.4344 8.83761 59.1259 8.96997 59.7878 9.20409C61.0277 9.65881 61.4293 10.5629 61.8705 11.5677C62.0074 11.8712 62.0965 12.063 62.1514 12.1863C62.1784 12.2278 62.1946 12.2719 62.2082 12.2989C62.228 12.3529 62.219 12.3565 62.2082 12.3268L67.9205 26.0585C66.9553 28.2493 65.8783 30.5634 65.1346 32.0239L65.1067 32.0528C64.9959 32.2734 64.8933 32.4778 64.7969 32.6434C64.6986 32.8337 64.5954 33.0214 64.4872 33.2062L63.7839 34.529H66.7383C68.034 31.6629 73.5447 18.2598 74.7297 15.3946C75.5005 17.4611 77.3941 18.3057 80.3016 19.5592C83.3325 20.8414 85.0559 21.9498 85.0559 23.8642C85.0559 26.1513 82.8805 27.3534 80.4421 27.3254C77.9758 27.3254 76.0623 26.2971 73.886 24.2865L73.6879 24.1172V27.7757C74.9008 28.7941 77.0735 29.3794 79.457 29.3794C82.1151 29.3794 87.6177 28.4168 87.6177 22.8512C87.6042 19.5168 84.8236 18.0545 81.8206 16.7732C78.1558 14.9552 76.9114 14.5905 76.9529 12.524C76.9529 9.75516 79.2148 8.92225 81.0895 8.92225C83.2379 8.92225 84.576 9.71104 86.4633 11.0887V7.85343C84.9353 7.31497 83.6413 7.12137 81.9053 7.12137C78.4341 7.12137 75.3042 8.38019 74.5046 11.3147L70.1996 21.9507L69.7493 23.3014L69.3549 21.9507L63.5588 7.82461C63.159 7.71476 62.6755 7.56979 62.1514 7.45904C61.0772 7.22492 59.8382 7.05204 58.8873 7.06554C58.7505 7.05204 58.6172 7.03673 58.465 7.03673C54.4437 7.03673 50.5592 8.72505 50.5592 12.7212C50.5592 12.9553 50.5718 13.1903 50.5862 13.3965C48.9744 9.56607 45.5347 6.92417 41.498 6.92417H41.3855C40.9426 6.93363 40.5008 6.97123 40.0627 7.03673H28.7226C28.2679 4.18594 29.5816 2.53453 31.5932 2.53453C34.1144 2.53453 35.204 3.3017 36.2917 4.3084H36.4051C36.4051 4.3084 36.4195 4.17693 36.4322 3.96983V1.21178C35.7028 0.880421 34.4692 0.621094 32.1839 0.621094ZM0.443359 0.703934V28.5338H3.7921V0.703934H0.443359ZM16.7071 6.95119C13.0288 6.95119 11.4891 8.27303 10.2636 9.59578C10.2002 9.66981 10.1524 9.75587 10.1231 9.8488H10.0664L10.0393 7.23212H7.08321V28.5338H10.1222V12.9724C10.2041 11.0716 12.9235 9.17347 15.0188 9.17347C17.54 9.17347 19.6047 10.8843 19.6047 13.2255V28.5329H22.6158V11.8478C22.5339 9.95956 20.235 6.95119 16.7071 6.95119ZM41.2171 9.14556H41.3855C45.1052 9.18698 48.1406 13.1777 48.2225 18.15C48.3063 23.2059 45.3285 27.3678 41.5259 27.4362H41.3855C37.6523 27.3939 34.5881 23.3905 34.4908 18.403C34.408 13.3605 37.428 9.21309 41.2171 9.14556Z" fill="#7E8BB6"/>
</svg>
