<svg width="65" height="65" viewBox="0 0 65 65" fill="none" xmlns="http://www.w3.org/2000/svg">
<rect width="65" height="65" fill="#F5F5F5"/>
<g clip-path="url(#clip0_94_157)">
<rect width="1600" height="899.571" transform="translate(-768 -276)" fill="white"/>
<rect opacity="0.8" x="-768" y="-276" width="1600" height="899.571" fill="#F0F9FF"/>
<rect x="-618.522" y="-240.781" width="640" height="834.097" rx="40" fill="url(#paint0_linear_94_157)"/>
<rect x="-768.137" y="-274.999" width="1600" height="899.73" fill="#091F3F" fill-opacity="0.53"/>
<rect x="-225.239" y="-34.7344" width="515.206" height="417.04" rx="9" fill="white"/>
<path d="M8.94238 20.7716C8.98095 20.4785 9.05037 20.1854 9.05037 19.8923C9.05808 14.1999 9.08893 8.50759 9.02723 2.81524C9.01952 1.55799 10.1225 0.524414 11.2949 0.524414C25.3561 0.56298 39.4173 0.56298 53.4785 0.524414C54.6432 0.524414 55.7308 1.57341 55.723 2.77667C55.6691 8.50759 55.6999 14.2385 55.6999 19.9694C55.6999 20.2394 55.7693 20.5171 55.8079 20.787C55.8079 25.1913 55.8156 29.5878 55.8156 33.9921C55.2371 34.4009 54.6509 34.8251 54.0647 35.2262C50.9486 37.3859 47.8324 39.5379 44.724 41.6976C44.2072 42.0601 43.7213 42.4612 43.2199 42.8468C42.9037 42.5923 42.5566 42.3686 42.2712 42.0832C40.9291 40.772 39.3402 39.8772 37.543 39.4067C35.0362 38.7434 32.4908 38.62 29.9146 38.8977C26.9142 39.2216 24.23 40.2089 22.1088 42.4535C21.9546 42.6154 21.7309 42.7157 21.5458 42.8468C17.5735 40.0701 13.6089 37.2856 9.62115 34.532C9.11207 34.1849 8.94238 33.8224 8.94238 33.2207C8.96552 29.0787 8.9501 24.929 8.94238 20.7716ZM32.3983 29.1944C37.0879 29.1944 41.7853 29.1944 46.4749 29.1944C46.7526 29.1944 47.038 29.2022 47.3156 29.1713C47.8787 29.1019 48.2875 28.6545 48.2798 28.13C48.2721 27.6055 47.8633 27.1427 47.3234 27.0656C47.1691 27.0425 47.0071 27.0502 46.8451 27.0502C37.2036 27.0502 27.5544 27.0502 17.9129 27.0502C17.7509 27.0502 17.5889 27.0425 17.4346 27.0579C16.887 27.135 16.4859 27.5901 16.4859 28.1146C16.4859 28.6777 16.833 29.0787 17.4269 29.1636C17.6815 29.1944 17.9437 29.1867 18.206 29.1867C22.9342 29.1944 27.6624 29.1944 32.3983 29.1944ZM35.5298 20.7099C39.2476 20.7099 42.9577 20.7099 46.6754 20.7099C47.7707 20.7099 48.2875 20.3551 48.2721 19.6146C48.2567 18.9127 47.7244 18.5425 46.6986 18.5425C39.2708 18.5425 31.8352 18.5425 24.4074 18.5425C23.3892 18.5425 22.8493 18.9204 22.8339 19.6223C22.8262 20.3165 23.3738 20.7099 24.3842 20.7099C28.102 20.7099 31.8198 20.7099 35.5298 20.7099ZM22.8493 12.1868C24.5308 12.1868 26.2046 12.1868 27.886 12.1868C28.6882 12.1868 29.1973 11.7471 29.1896 11.0992C29.1742 10.4976 28.7114 10.1428 27.9169 10.1197C27.8166 10.1197 27.7164 10.1197 27.6161 10.1197C24.4382 10.1197 21.2681 10.1197 18.0903 10.1197C17.828 10.1197 17.5658 10.1119 17.3112 10.1505C16.6247 10.2662 16.2545 10.9604 16.5708 11.562C16.7867 11.9785 17.1415 12.1945 17.6429 12.1868C19.3707 12.1791 21.1061 12.1868 22.8493 12.1868Z" fill="#CCE1FD"/>
<path d="M21.5452 42.8545C21.738 42.7233 21.954 42.6231 22.1082 42.4611C24.2294 40.2165 26.9136 39.2292 29.914 38.9053C32.4902 38.6276 35.0433 38.7587 37.5424 39.4144C39.3396 39.8926 40.9285 40.7796 42.2706 42.0909C42.5637 42.3762 42.9031 42.5999 43.2193 42.8545C43.3582 43.0627 43.4739 43.2941 43.6513 43.4715C47.1299 46.9965 50.6009 50.5214 54.095 54.0309C57.2497 57.201 60.4198 60.3635 63.5899 63.5182C63.7442 63.6724 63.991 63.7419 64.1916 63.8421C64.1144 63.9655 64.0527 64.1429 63.9447 64.1969C63.8136 64.2586 63.6285 64.2124 63.4742 64.2124C42.7411 64.2124 22.0003 64.2124 1.26713 64.2046C1.02802 64.2046 0.788914 64.1198 0.549805 64.0735C0.727209 63.9193 0.920039 63.7727 1.08973 63.603C4.50668 60.1861 7.93135 56.7691 11.3406 53.3367C14.6341 50.02 17.92 46.6956 21.1981 43.3712C21.3369 43.2324 21.4295 43.0319 21.5452 42.8545Z" fill="#7FC5F2"/>
<path d="M21.5457 42.854C21.43 43.0314 21.3374 43.232 21.1909 43.3862C17.9127 46.7106 14.6269 50.0428 11.3334 53.3517C7.92412 56.7841 4.49945 60.1934 1.0825 63.618C0.912806 63.7877 0.727689 63.9343 0.542572 64.0885C0.534858 63.8726 0.527145 63.6489 0.527145 63.4329C0.527145 51.8708 0.527145 40.3087 0.511719 28.7543C0.511719 28.2761 0.63513 27.9444 1.00536 27.6281C3.65871 25.3605 6.29663 23.0619 8.93455 20.7788C8.94226 24.9285 8.95769 29.0782 8.93455 33.2279C8.93455 33.8296 9.10424 34.1921 9.61332 34.5392C13.6088 37.2928 17.5734 40.0773 21.5457 42.854Z" fill="#429BDF"/>
<path d="M64.1929 63.8501C63.9924 63.7421 63.7456 63.6804 63.5913 63.5261C60.4212 60.3714 57.251 57.209 54.0963 54.0389C50.61 50.5294 47.1313 47.0044 43.6526 43.4795C43.4752 43.3021 43.3673 43.0707 43.2207 42.8624C43.7221 42.4768 44.208 42.068 44.7248 41.7132C47.8332 39.5458 50.9493 37.3938 54.0655 35.2418C54.6517 34.833 55.2302 34.4165 55.8164 34.0077C57.7755 32.6193 59.7347 31.2309 61.7016 29.858C62.5115 29.2949 63.3445 28.7704 64.1698 28.2305C64.1852 28.4079 64.2161 28.5853 64.2161 28.7627C64.2161 40.3479 64.2161 51.9255 64.2161 63.5107C64.2161 63.611 64.2007 63.7344 64.1929 63.8501Z" fill="#A3D4F6"/>
<path d="M64.1692 28.2149C63.3439 28.7549 62.5109 29.2794 61.701 29.8424C59.7341 31.2154 57.775 32.6115 55.8158 33.9921C55.8158 29.5879 55.8081 25.1914 55.8081 20.7871C57.9987 22.6768 60.1892 24.5666 62.3721 26.4563C62.8888 26.896 63.4056 27.3356 63.907 27.7984C64.0227 27.9064 64.0844 28.0761 64.1692 28.2149Z" fill="#429BDF"/>
<path d="M32.3977 29.1948C27.6695 29.1948 22.9336 29.1948 18.2054 29.1948C17.9432 29.1948 17.6809 29.2025 17.4264 29.1717C16.8324 29.0945 16.4854 28.6935 16.4854 28.1227C16.4854 27.5982 16.8942 27.1431 17.4341 27.066C17.5883 27.0428 17.7503 27.0583 17.9123 27.0583C27.5538 27.0583 37.2031 27.0583 46.8446 27.0583C47.0066 27.0583 47.1685 27.0505 47.3228 27.0737C47.855 27.1508 48.2638 27.6136 48.2792 28.1381C48.287 28.6549 47.8781 29.11 47.3151 29.1794C47.0374 29.2102 46.7597 29.2025 46.4743 29.2025C41.777 29.1948 37.0874 29.1948 32.3977 29.1948Z" fill="#7C89AE"/>
<path d="M35.5286 20.7099C31.8108 20.7099 28.1007 20.7099 24.383 20.7099C23.3725 20.7099 22.8249 20.3165 22.8326 19.6223C22.8403 18.9204 23.388 18.5425 24.4061 18.5425C31.8339 18.5425 39.2695 18.5425 46.6973 18.5425C47.7232 18.5425 48.2554 18.9204 48.2708 19.6146C48.2862 20.3551 47.7771 20.7099 46.6742 20.7099C42.9641 20.7099 39.2463 20.7099 35.5286 20.7099Z" fill="#7C89AE"/>
<path d="M22.8488 12.1869C21.1133 12.1869 19.3701 12.1792 17.6346 12.1946C17.1333 12.1946 16.7785 11.9864 16.5625 11.5698C16.2463 10.9682 16.6165 10.2817 17.303 10.1583C17.5575 10.112 17.8198 10.1275 18.082 10.1275C21.2599 10.1275 24.43 10.1275 27.6078 10.1275C27.7081 10.1275 27.8084 10.1275 27.9087 10.1275C28.7031 10.1506 29.1659 10.5054 29.1813 11.107C29.1968 11.755 28.68 12.1869 27.8778 12.1946C26.204 12.1869 24.5226 12.1869 22.8488 12.1869Z" fill="#7C89AE"/>
</g>
<defs>
<linearGradient id="paint0_linear_94_157" x1="21.4775" y1="-240.781" x2="-209.731" y2="617.243" gradientUnits="userSpaceOnUse">
<stop stop-color="#2F64EC"/>
<stop offset="1" stop-color="#2A27A6"/>
</linearGradient>
<clipPath id="clip0_94_157">
<rect width="1600" height="899.571" fill="white" transform="translate(-768 -276)"/>
</clipPath>
</defs>
</svg>
