<svg width="88" height="33" viewBox="0 0 88 33" fill="none" xmlns="http://www.w3.org/2000/svg">
<path d="M48.9611 10.3562H45.9405V17.3426C45.9405 19.1408 45.2013 20.5693 43.0336 20.5693C40.8872 20.5906 40.2689 19.1194 40.2689 17.2502V10.3562H37.2412V18.0178C37.2412 20.2282 38.023 23.3909 42.1808 23.4122C44.4622 23.4335 45.5922 22.3248 46.1253 21.3369V23.0213H48.9611V10.3562ZM50.1622 23.0213H53.1828V16.0349C53.1828 14.2581 53.9219 12.8295 56.0683 12.8082C58.1934 12.8082 58.8117 14.2581 58.8117 16.1557V23.0213H61.8323V15.3882C61.8323 13.1494 61.0505 9.99376 56.9212 9.96533C54.6611 9.94401 53.531 11.0456 52.9767 12.0406C52.998 11.4436 52.998 10.9106 52.998 10.3562H50.1622V23.0213ZM62.9907 23.0213H66.0113V10.3562H62.9907V23.0213ZM62.9907 8.65049H66.0113V5.94975H62.9907V8.65049ZM69.174 23.0213H72.1946V12.6874H74.3623L73.4668 10.3562H72.1946V5.94975H69.174V10.3562H67.0774V12.6874H69.174V23.0213ZM77.2834 27.4491H80.5101L87.1766 10.3562H83.95L80.9081 18.7783L77.8164 10.3562H74.5897L79.3658 22.538L77.2834 27.4491ZM20.6743 16.5751L26.1895 7.05137L28.8547 16.5751L26.1895 26.0987L20.6743 16.5751ZM17.9877 18.1173L23.503 27.641L13.894 25.1819L6.95022 18.1173H17.9877ZM23.503 5.50199L17.9877 15.0257H6.95022L13.894 7.9611L23.503 5.50199ZM31.3778 13.3342L28.0089 0.818329L15.4505 4.17294L13.5884 7.44226L9.81443 7.41383L0.617676 16.5751L9.81443 25.7363L13.5884 25.7079L15.4505 28.9772L28.0089 32.3318L31.3778 19.8159L29.4659 16.5751L31.3778 13.3342Z" fill="#7E8BB6"/>
</svg>
