<svg width="98" height="35" viewBox="0 0 98 35" fill="none" xmlns="http://www.w3.org/2000/svg">
<path id="Vector" d="M96.3361 11.8801C95.7077 11.8801 95.1578 12.43 95.1578 13.0584V15.0222C95.1578 17.5358 93.194 19.5782 90.6804 19.5782H89.9734C87.4598 19.4996 85.496 17.4573 85.496 15.0222V13.0584C85.496 10.5447 87.4598 8.50241 89.9734 8.50241H92.1729C92.8013 8.50241 93.2726 7.95255 93.2726 7.24559C93.2726 6.61718 92.8013 6.14587 92.1729 6.14587H89.9734C86.203 6.22442 83.1395 9.28793 83.218 13.0584V15.0222C83.218 18.7926 86.203 21.9347 89.9734 21.9347H90.6804C94.4509 21.8561 97.5144 18.7926 97.4358 15.0222V13.0584C97.5144 12.43 96.9645 11.8801 96.3361 11.8801ZM14.5641 6.22442C13.9357 5.98877 13.3073 6.30297 13.0716 6.93138L8.59421 19.1854C8.51566 19.4211 8.28001 19.5782 8.04435 19.5782C7.8087 19.5782 7.57304 19.4211 7.49449 19.1854L3.01707 6.85283C2.78141 6.30297 2.07445 5.98877 1.52459 6.30297C0.97473 6.53863 0.660525 7.16704 0.896179 7.7169L5.37361 19.9709C5.76636 21.1492 6.86608 21.8561 8.1229 21.9347C9.37973 21.9347 10.4794 21.1492 10.8722 20.0495L15.3496 7.79545C15.5067 7.08849 15.1925 6.46008 14.5641 6.22442ZM23.8332 19.5782C23.1262 19.5782 22.4193 19.3425 21.7908 19.0283C21.3195 18.7141 21.0053 18.1642 21.0053 17.6144V7.32414C21.0053 6.69573 20.4555 6.14587 19.8271 6.14587C19.1986 6.14587 18.6488 6.69573 18.6488 7.32414V17.6144C18.6488 19.0283 19.3557 20.2851 20.534 20.9921C21.4766 21.6205 22.6549 21.9347 23.7546 21.9347C24.383 21.9347 24.8543 21.3848 24.8543 20.6779C24.9329 20.0495 24.4616 19.5782 23.8332 19.5782ZM34.3591 19.5782C33.6521 19.5782 32.9451 19.4211 32.3167 19.0283C31.8454 18.7141 31.5312 18.1642 31.5312 17.6144V1.51134C31.5312 0.882929 30.9814 0.411621 30.2744 0.411621C29.646 0.411621 29.1747 0.882929 29.1747 1.51134V6.77428C28.3106 6.30297 27.368 6.14587 26.4254 6.14587H25.2471C24.6187 6.14587 24.1474 6.69573 24.1474 7.40269C24.1474 8.0311 24.6187 8.50241 25.2471 8.50241H26.4254C27.1323 8.50241 27.8393 8.65951 28.4677 9.05227C28.939 9.36648 29.2532 9.91634 29.2532 10.4662V17.5358C29.2532 18.9497 29.9602 20.2066 31.1385 20.9135C32.0811 21.5419 33.2593 21.8561 34.3591 21.8561C34.9875 21.8561 35.4588 21.3063 35.4588 20.5993C35.4588 20.0495 34.9875 19.5782 34.3591 19.5782ZM48.5769 12.8227H42.3713C41.7429 12.8227 41.193 13.3726 41.193 14.001C41.193 14.6294 41.7429 15.1793 42.3713 15.1793H48.5769C49.9122 15.1793 51.012 14.0796 51.012 12.7442C51.012 9.13082 48.027 6.14587 44.4136 6.14587H43.3925C39.7006 6.14587 36.7942 9.13082 36.7942 12.7442V15.2578C36.7942 18.9497 39.7791 21.8561 43.3925 21.8561H45.1992C47.0844 21.8561 48.9696 20.9921 50.2264 19.5782C50.6192 19.1068 50.6192 18.3213 50.1479 17.9286C49.6766 17.5358 48.8911 17.5358 48.4983 18.0071C47.7128 18.9497 46.5345 19.4996 45.2777 19.4996H43.471C41.1145 19.4996 39.1507 17.5358 39.1507 15.1793V12.7442C39.1507 10.3876 41.1145 8.42386 43.471 8.50241H44.4922C46.8487 8.50241 48.8125 10.3876 48.8125 12.7442C48.6554 12.8227 48.6554 12.8227 48.5769 12.8227ZM62.7947 13.1369L57.3746 12.0372C56.6676 11.8801 56.1963 11.4088 56.0392 10.7018C55.8821 10.0734 56.1963 9.36648 56.7462 9.05227C57.3746 8.65951 58.003 8.50241 58.7885 8.50241H60.9094C61.9306 8.58096 62.9518 9.05227 63.5802 9.91634C63.9729 10.3876 64.6799 10.5447 65.2297 10.152C65.7011 9.75923 65.8582 9.05227 65.4654 8.58096C64.4442 7.08849 62.7161 6.22442 60.9094 6.22442H58.7885C57.6103 6.22442 56.5105 6.53863 55.5679 7.16704C54.154 8.0311 53.447 9.60213 53.7612 11.2517C54.0755 12.8227 55.2537 14.1581 56.9033 14.4723L62.3233 15.572C63.1089 15.7291 63.6587 16.279 63.8158 17.0645C63.9729 17.7715 63.6587 18.557 63.1089 18.9497C62.4019 19.4996 61.4593 19.7353 60.5952 19.7353H58.8671C57.6103 19.7353 56.432 19.1854 55.5679 18.2428C55.1752 17.7715 54.3897 17.6929 53.9184 18.1642C53.447 18.557 53.3685 19.3425 53.8398 19.8138C55.0966 21.2277 56.9819 22.0918 58.8671 22.0918H60.5952C62.0091 22.0918 63.3445 21.699 64.4442 20.835C66.3295 19.4996 66.8008 16.8289 65.3868 14.9436C64.7584 13.9225 63.8158 13.294 62.7947 13.1369ZM80.7829 18.0071C80.3116 17.6144 79.6046 17.6144 79.1333 18.0857C78.2693 19.0283 77.091 19.5782 75.8342 19.5782H75.1272C72.6136 19.4996 70.6498 17.4573 70.6498 15.0222V13.0584C70.6498 10.5447 72.6136 8.50241 75.1272 8.50241H75.8342C77.091 8.50241 78.2693 9.05227 79.1333 9.99489C79.5261 10.4662 80.3116 10.5447 80.7829 10.0734C81.2542 9.68068 81.3328 8.89517 80.8615 8.42386C79.6046 7.00994 77.798 6.14587 75.8342 6.14587H75.1272C71.3568 6.22442 68.2933 9.28793 68.3718 13.0584V15.0222C68.3718 18.7926 71.3568 21.9347 75.1272 21.9347H75.8342C77.7194 21.9347 79.6046 21.0706 80.8615 19.6567C81.3328 19.1854 81.2542 18.3999 80.7829 18.0071ZM86.203 34.1887C85.7317 33.796 85.496 33.1675 85.496 32.5391H86.5172C86.5172 32.9319 86.6743 33.2461 86.9885 33.4817C87.3027 33.7174 87.6954 33.796 88.0882 33.796C88.4809 33.796 88.7952 33.7174 89.1094 33.5603C89.345 33.4032 89.5021 33.089 89.4236 32.8533C89.4236 32.6962 89.4236 32.5391 89.2665 32.382C89.1879 32.2249 89.0308 32.1464 88.8737 32.0678C88.6381 31.9893 88.4809 31.9107 88.2453 31.8322L87.2241 31.5965C86.7528 31.518 86.3601 31.2823 85.9673 30.9681C85.6531 30.6539 85.496 30.2611 85.496 29.8684C85.496 29.5542 85.5745 29.1614 85.7317 28.9258C85.8888 28.6116 86.203 28.3759 86.5172 28.2188C86.9099 28.0617 87.3812 27.9831 87.774 27.9831C88.2453 27.9831 88.6381 28.0617 89.0308 28.2188C89.345 28.3759 89.6592 28.6116 89.8949 28.9258C90.1305 29.24 90.2091 29.6327 90.2091 30.0255H89.1879C89.1879 29.7113 89.0308 29.3971 88.7166 29.1614C88.4024 28.9258 88.0882 28.8472 87.6954 28.8472C87.3812 28.8472 87.067 28.9258 86.7528 29.0829C86.5172 29.24 86.4386 29.4756 86.4386 29.7113C86.4386 29.9469 86.5172 30.104 86.6743 30.2611C86.9099 30.4182 87.1456 30.4968 87.3812 30.5753L88.5595 30.811C89.0308 30.8896 89.5021 31.1252 89.8949 31.4394C90.2091 31.7536 90.3662 32.1464 90.3662 32.6177C90.3662 33.0104 90.2876 33.3246 90.052 33.6388C89.8163 33.9531 89.5807 34.1887 89.1879 34.3458C88.7166 34.5029 88.3239 34.5815 87.8525 34.5815C87.3812 34.7386 86.6743 34.5029 86.203 34.1887ZM83.7679 33.6388V34.5815H79.1333V28.2974H83.6893V29.24H80.2331V30.811H83.3751V31.7536H80.2331V33.6388H83.7679ZM75.4414 28.2188H76.5411V34.5029H75.4414V28.2188ZM72.6921 31.1252V34.5029H71.9852L71.7495 33.7174C71.5924 34.0316 71.2782 34.2673 70.964 34.4244C70.6498 34.5815 70.257 34.66 69.8643 34.66C69.3144 34.66 68.8431 34.5029 68.3718 34.2673C67.9005 33.9531 67.5863 33.5603 67.3506 33.089C66.8793 31.9893 66.8793 30.7324 67.3506 29.6327C67.5863 29.1614 67.979 28.7687 68.3718 28.4545C68.8431 28.1403 69.393 28.0617 69.9428 28.0617C70.4141 28.0617 70.8069 28.1403 71.2782 28.2974C71.671 28.4545 71.9852 28.6901 72.2208 29.0043C72.4565 29.3185 72.6136 29.7113 72.6921 30.104L71.5924 30.1826C71.5139 29.8684 71.3568 29.4756 71.0425 29.3185C70.7283 29.0829 70.3356 29.0043 70.0214 29.0043C69.6286 29.0043 69.3144 29.0829 68.9217 29.3185C68.6075 29.5542 68.3718 29.7898 68.2147 30.104C68.0576 30.4968 67.979 30.8896 67.979 31.3609C67.979 31.7536 68.0576 32.2249 68.2147 32.6177C68.3718 32.9319 68.6075 33.2461 68.9217 33.4817C69.2359 33.7174 69.5501 33.796 69.9428 33.796C70.257 33.796 70.4927 33.7174 70.8069 33.6388C71.0425 33.4817 71.2782 33.3246 71.4353 33.089C71.5924 32.8533 71.7495 32.5391 71.7495 32.2249V32.0678H70.0214V31.1252H72.6921ZM60.6738 34.2673C60.2025 33.9531 59.8097 33.5603 59.5741 33.089C59.3384 32.5391 59.1813 31.9107 59.1813 31.3609C59.1813 30.7324 59.3384 30.1826 59.5741 29.6327C59.8097 29.1614 60.2025 28.7687 60.6738 28.4545C61.6164 27.9046 62.7947 27.9046 63.7373 28.4545C64.2086 28.7687 64.6013 29.1614 64.837 29.6327C65.0726 30.1826 65.2297 30.7324 65.2297 31.3609C65.2297 31.9893 65.0726 32.5391 64.837 33.089C64.3657 34.1102 63.3445 34.7386 62.2448 34.66C61.6164 34.7386 61.1451 34.5815 60.6738 34.2673ZM63.1874 33.4817C63.5016 33.2461 63.7373 33.0104 63.8944 32.6177C64.0515 32.2249 64.13 31.7536 64.13 31.3609C64.13 30.9681 64.0515 30.4968 63.8944 30.104C63.7373 29.7898 63.5016 29.4756 63.1874 29.3185C62.559 28.9258 61.7735 28.9258 61.1451 29.3185C60.8309 29.5542 60.5952 29.7898 60.4381 30.104C60.281 30.4968 60.2025 30.8896 60.2025 31.3609C60.2025 31.8322 60.281 32.2249 60.4381 32.6177C60.5952 32.9319 60.8309 33.2461 61.1451 33.4817C61.7735 33.8745 62.559 33.8745 63.1874 33.4817ZM57.8459 33.5603V34.5029H53.5256V28.2188H54.6253V33.5603H57.8459ZM46.9273 34.2673C46.456 33.9531 46.0632 33.5603 45.8276 33.089C45.5919 32.5391 45.4348 31.9107 45.4348 31.3609C45.4348 30.7324 45.5919 30.1826 45.8276 29.6327C46.0632 29.1614 46.456 28.7687 46.9273 28.4545C47.3986 28.2188 47.9484 28.0617 48.4198 28.0617C48.9696 28.0617 49.5195 28.2188 49.9908 28.4545C50.4621 28.7687 50.8548 29.1614 51.0905 29.6327C51.3262 30.1826 51.4833 30.7324 51.4833 31.3609C51.4833 31.9893 51.3262 32.5391 51.0905 33.089C50.8548 33.5603 50.4621 33.9531 49.9908 34.2673C49.5195 34.5815 48.9696 34.66 48.4198 34.66C47.9484 34.7386 47.3986 34.5815 46.9273 34.2673ZM49.5195 33.4817C49.8337 33.2461 50.0693 33.0104 50.2264 32.6177C50.3835 32.2249 50.4621 31.7536 50.4621 31.3609C50.4621 30.9681 50.3835 30.4968 50.2264 30.104C50.0693 29.7898 49.8337 29.4756 49.5195 29.3185C48.8911 28.9258 48.1055 28.9258 47.4771 29.3185C47.1629 29.5542 46.9273 29.7898 46.7702 30.104C46.6131 30.4968 46.5345 30.8896 46.5345 31.3609C46.5345 31.8322 46.6131 32.2249 46.7702 32.6177C46.9273 32.9319 47.1629 33.2461 47.4771 33.4817C48.1055 33.8745 48.8911 33.8745 49.5195 33.4817ZM43.2354 28.2188V34.5029H42.1356L39.2292 29.8684V34.5029H38.2081V28.2188H39.3078L42.2142 32.8533V28.2188H43.2354ZM35.3017 28.2188V34.5029H34.202V31.6751H31.2956V34.5029H30.1958V28.2188H31.2956V30.7324H34.202V28.2188H35.3017ZM23.5975 34.2673C23.1262 33.9531 22.812 33.5603 22.5764 33.089C22.3407 32.5391 22.1836 31.9107 22.1836 31.3609C22.1836 30.7324 22.3407 30.1826 22.5764 29.6327C22.812 29.1614 23.1262 28.7687 23.5975 28.4545C24.0688 28.1403 24.5401 28.0617 25.09 28.0617C25.5613 28.0617 25.9541 28.1403 26.3468 28.2974C26.7396 28.4545 27.0538 28.6901 27.2894 29.0829C27.5251 29.3971 27.6822 29.7898 27.6822 30.1826H26.661C26.5825 29.8684 26.4254 29.5542 26.1112 29.3185C25.797 29.0829 25.4828 29.0043 25.09 29.0043C24.6972 29.0043 24.383 29.0829 24.0688 29.3185C23.7546 29.5542 23.519 29.7898 23.4404 30.104C23.2833 30.4968 23.2048 30.8896 23.2048 31.3609C23.2048 31.8322 23.2833 32.2249 23.4404 32.6177C23.5975 32.9319 23.7546 33.2461 24.0688 33.4817C24.383 33.7174 24.6972 33.796 25.09 33.796C25.4828 33.796 25.8755 33.7174 26.1897 33.4032C26.5039 33.089 26.661 32.7748 26.661 32.382H27.6822C27.6036 32.8533 27.5251 33.2461 27.2894 33.6388C27.0538 33.9531 26.7396 34.2673 26.3468 34.4244C26.0326 34.66 25.5613 34.7386 25.09 34.7386C24.5401 34.7386 24.0688 34.5815 23.5975 34.2673ZM20.1413 33.6388V34.5815H15.5067V28.2974H20.0627V29.24H16.6065V30.811H19.7485V31.7536H16.6065V33.6388H20.1413ZM13.1502 29.1614H11.1079V34.5029H10.0081V29.1614H7.9658V28.2188H13.0716V29.1614H13.1502Z" fill="#7E8BB6"/>
</svg>
